<svg width="60" height="60" viewBox="0 0 60 60" fill="none" xmlns="http://www.w3.org/2000/svg">
<path fill-rule="evenodd" clip-rule="evenodd" d="M43.5 0C46.4599 0 48.8198 0.199827 50.7598 0.759766C52.5598 1.29977 53.8805 2.09996 54.9805 2.95996C56.8803 4.41995 58.2403 6.52007 58.8203 8C60.0003 10.98 60 14.38 60 16.5V43.5C60 45.64 59.9803 49.02 58.8203 52C58.2403 53.4799 56.9003 55.5601 54.9805 57.04C53.8805 57.88 52.5598 58.7002 50.7598 59.2402C48.8398 59.8202 46.4599 60 43.5 60H16.5C13.5401 60 11.1802 59.8002 9.24023 59.2402C7.44023 58.7002 6.11953 57.9 5.01953 57.04C3.11968 55.58 1.75966 53.4799 1.17969 52C0.0197281 49.02 0 45.64 0 43.5V16.5C0 14.36 0.0197281 10.98 1.17969 8C1.75966 6.52007 3.09968 4.43995 5.01953 2.95996C6.11953 2.11996 7.44023 1.29977 9.24023 0.759766C11.1802 0.199827 13.5401 0 16.5 0H43.5ZM30.1016 33.2998C28.2417 33.2999 26.6617 33.9004 25.7617 34.8604C25.3018 35.3603 25.0419 35.8602 24.9619 36.5801C24.8019 37.9801 24.9015 39.1801 25.0615 41.1201C25.2215 42.9601 25.5214 45.4204 25.9014 47.9004C26.1813 49.6802 26.4016 50.6403 26.6016 51.3203C26.9416 52.4402 28.1618 53.4003 30.1016 53.4004C32.0414 53.4004 33.2814 52.4202 33.6016 51.3203C33.8015 50.6404 34.0218 49.6802 34.3018 47.9004C34.6818 45.4004 34.9816 42.9601 35.1416 41.1201C35.3216 39.1802 35.4022 37.98 35.2422 36.5801C35.1622 35.8601 34.9214 35.3404 34.4414 34.8604C33.5414 33.9204 31.9615 33.2998 30.1016 33.2998ZM30.042 7C18.5621 7.04 9.16206 16.3599 9.00195 27.8398C8.88195 37.1398 14.8221 45.1005 23.1221 48.0205C23.3219 48.1001 23.5219 47.9196 23.502 47.7197C23.402 46.9998 23.2821 46.2795 23.2021 45.5596C23.1621 45.3 23.0018 45.1004 22.7822 44.9805C16.2222 42.1205 11.6417 35.5399 11.7217 27.9199C11.8217 17.92 19.982 9.78019 29.9619 9.7002C40.1817 9.62027 48.5212 17.8999 48.5215 28.0996C48.5215 35.6396 43.9619 42.1205 37.4619 44.9805C37.2221 45.0804 37.0622 45.2998 37.042 45.5596C36.942 46.2794 36.8422 46.9998 36.7422 47.7197C36.7022 47.9397 36.9221 48.1005 37.1221 48.0205C45.342 45.1405 51.2422 37.2996 51.2422 28.0996C51.202 16.4599 41.7018 6.98011 30.042 7ZM44.2422 28.0996C44.2619 20.1398 37.6014 13.68 29.5615 14C22.0816 14.2801 16.0814 20.4605 15.9814 27.9404C15.9216 32.8603 18.3822 37.2199 22.1621 39.7998C22.3421 39.9197 22.6016 39.7795 22.6016 39.5596C22.5416 38.6998 22.542 37.9395 22.582 37.1396C22.6019 36.8798 22.5017 36.6399 22.3018 36.46C20.0019 34.3 18.6017 31.2202 18.6816 27.8203C18.8416 21.8203 23.6621 16.9402 29.6621 16.7002C36.182 16.4404 41.542 21.6802 41.542 28.1201C41.542 31.4 40.1418 34.36 37.9219 36.46C37.742 36.6399 37.6417 36.8798 37.6416 37.1396C37.6816 37.9196 37.6621 38.68 37.6221 39.54C37.6021 39.7599 37.8616 39.9199 38.0615 39.7803C41.7815 37.2403 44.2422 32.9396 44.2422 28.0996ZM30.1016 21.46C27.3817 21.4601 25.1817 23.66 25.1816 26.3799C25.1816 29.0998 27.3817 31.2997 30.1016 31.2998C32.8216 31.2998 35.0215 29.0999 35.0215 26.3799C35.0214 23.68 32.8215 21.46 30.1016 21.46Z" fill="currentColor"/>
</svg>
