<svg width="64" height="64" viewBox="0 0 64 64" fill="none" xmlns="http://www.w3.org/2000/svg">
<path fill-rule="evenodd" clip-rule="evenodd" d="M39.277 0.461117C40.9333 -0.55401 43.0655 0.17061 43.835 2.01024L46.463 8.29254C46.9281 9.40425 47.931 10.1665 49.0855 10.2856L55.6095 10.9588C57.5199 11.1559 58.8376 13.0531 58.4264 15.0145L57.0225 21.7127C56.7741 22.8981 57.1572 24.1314 58.0243 24.9376L62.9239 29.4934C64.3587 30.8275 64.3587 33.1725 62.9239 34.5066L58.0243 39.0624C57.1572 39.8686 56.7741 41.1019 57.0225 42.2873L58.4264 48.9855C58.8376 50.9469 57.5199 52.8443 55.6095 53.0414L49.0855 53.7144C47.931 53.8335 46.9281 54.5958 46.463 55.7075L43.835 61.9898C43.0655 63.8294 40.9333 64.554 39.277 63.5389L33.6207 60.0724C32.6198 59.4589 31.3802 59.4589 30.3793 60.0724L24.723 63.5389C23.0667 64.554 20.9345 63.8294 20.165 61.9898L17.537 55.7075C17.0719 54.5958 16.069 53.8335 14.9145 53.7144L8.39049 53.0414C6.48009 52.8443 5.16244 50.9469 5.57356 48.9855L6.97749 42.2873C7.22594 41.1019 6.8428 39.8686 5.97573 39.0624L1.07609 34.5066C-0.358696 33.1725 -0.358696 30.8275 1.07609 29.4934L5.97573 24.9376C6.8428 24.1314 7.22594 22.8981 6.97749 21.7127L5.57356 15.0145C5.16244 13.0531 6.48009 11.1559 8.39049 10.9588L14.9145 10.2856C16.069 10.1665 17.0719 9.40425 17.537 8.29254L20.165 2.01024C20.9345 0.170609 23.0667 -0.554011 24.723 0.461117L30.3793 3.92765C31.3802 4.5411 32.6198 4.5411 33.6207 3.92765L39.277 0.461117ZM43.3909 23.2509C42.4621 22.2794 40.9563 22.2794 40.0275 23.2509L28.4105 35.4025L24.0474 30.8386C23.1186 29.8671 21.6129 29.8671 20.6841 30.8386C19.7553 31.8102 19.7553 33.3852 20.6841 34.3568L26.7289 40.68C27.6577 41.6514 29.1636 41.6515 30.0923 40.68L43.3909 26.769C44.3196 25.7975 44.3196 24.2224 43.3909 23.2509Z" fill="black" style="fill:black;fill-opacity:1;"/>
</svg>
