<svg width="50" height="60" viewBox="0 0 50 60" fill="none" xmlns="http://www.w3.org/2000/svg">
<path d="M6.25231 16.5747C6.25231 14.8329 4.85335 13.4209 3.12764 13.4209C1.40194 13.4209 0.00297699 14.8329 0.00297699 16.5747V18.9513C0.00297699 20.6931 1.40194 22.1051 3.12764 22.1051C4.85335 22.1051 6.25231 20.6931 6.25231 18.9513V16.5747Z" fill="currentColor"/>
<path d="M43.7477 43.4253C43.7477 45.1671 45.1466 46.5791 46.8725 46.5791C48.5981 46.5791 49.997 45.1671 49.997 43.4253V41.0487C49.997 39.3069 48.5981 37.8949 46.8725 37.8949C45.1466 37.8949 43.7477 39.3069 43.7477 41.0487V43.4253Z" fill="currentColor"/>
<path d="M32.8108 50.5298C32.8108 52.2716 34.2098 53.6837 35.9355 53.6837C37.6612 53.6837 39.0601 52.2716 39.0601 50.5298V37.1005C39.0601 35.3587 37.6612 33.9468 35.9355 33.9468C34.2098 33.9468 32.8108 35.3587 32.8108 37.1005V50.5298Z" fill="currentColor"/>
<path d="M21.8738 56.8461C21.8738 58.588 23.2728 60 24.9985 60C26.7242 60 28.1232 58.588 28.1232 56.8461V42.6276C28.1232 40.8856 26.7242 39.4737 24.9985 39.4737C23.2728 39.4737 21.8738 40.8856 21.8738 42.6276V56.8461Z" fill="currentColor"/>
<path d="M10.9369 51.3207C10.9369 53.0626 12.3359 54.4746 14.0616 54.4746C15.7874 54.4746 17.1863 53.0626 17.1863 51.3207V44.9969C17.1863 43.255 15.7874 41.8431 14.0616 41.8431C12.3359 41.8431 10.9369 43.255 10.9369 44.9969V51.3207Z" fill="currentColor"/>
<path d="M0 43.4253C0 45.1671 1.39896 46.5791 3.12467 46.5791C4.85038 46.5791 6.24933 45.1671 6.24933 43.4253V41.0487C6.24933 39.3069 4.85038 37.8949 3.12467 37.8949C1.39896 37.8949 0 39.3069 0 41.0487V43.4253Z" fill="currentColor"/>
<path d="M17.1892 9.47025C17.1892 7.72843 15.7904 6.31641 14.0646 6.31641C12.3389 6.31641 10.9399 7.72843 10.9399 9.47025V22.8995C10.9399 24.6413 12.3389 26.0532 14.0646 26.0532C15.7904 26.0532 17.1892 24.6413 17.1892 22.8995V9.47025Z" fill="currentColor"/>
<path d="M28.1262 3.15384C28.1262 1.41203 26.7272 0 25.0015 0C23.2758 0 21.8769 1.41203 21.8769 3.15384V17.3724C21.8769 19.1144 23.2758 20.5263 25.0015 20.5263C26.7272 20.5263 28.1262 19.1144 28.1262 17.3724V3.15384Z" fill="currentColor"/>
<path d="M39.0632 9.47025C39.0632 7.72843 37.6641 6.31641 35.9385 6.31641C34.2128 6.31641 32.8137 7.72843 32.8137 9.47025V15.0047C32.8137 16.7465 34.2128 18.1585 35.9385 18.1585C37.6641 18.1585 39.0632 16.7465 39.0632 15.0047V9.47025Z" fill="currentColor"/>
<path d="M50 16.5747C50 14.8329 48.6011 13.4209 46.8754 13.4209C45.1496 13.4209 43.7507 14.8329 43.7507 16.5747V18.9513C43.7507 20.6931 45.1496 22.1051 46.8754 22.1051C48.6011 22.1051 50 20.6931 50 18.9513V16.5747Z" fill="currentColor"/>
<path d="M24.6735 26.2764C31.5917 21.2628 41.0997 21.7965 47.4297 27.6607L43.1992 32.3145C39.0608 28.4805 32.8437 28.1302 28.3206 31.4077L27.8881 31.7373L26.0203 33.2241C19.2617 38.606 9.71935 38.4096 3.19292 32.8609L2.57176 32.3086L2.34681 32.0772C1.29633 30.8783 1.29605 29.0467 2.39471 27.8452C3.49356 26.6439 5.30217 26.4985 6.57007 27.46L6.81534 27.6665L7.2217 28.0283C11.4882 31.6558 17.727 31.7839 22.1453 28.2656L24.0131 26.7788L24.6735 26.2764ZM47.4297 27.6607C48.7026 28.8399 48.7879 30.8377 47.6198 32.1226C46.4516 33.4072 44.4722 33.4932 43.1992 32.3145L47.4297 27.6607Z" fill="currentColor"/>
</svg>
