<svg width="64" height="46" viewBox="0 0 64 46" fill="none" xmlns="http://www.w3.org/2000/svg">
<path fill-rule="evenodd" clip-rule="evenodd" d="M32 0.5C32.0551 0.500003 52.0219 0.501533 57.0039 1.84375C59.7591 2.58466 61.9247 4.75993 62.6621 7.52734C63.9949 12.5385 64 23 64 23C64 23 64.0003 33.4614 62.6621 38.4727C61.9247 41.2401 59.7591 43.4155 57.0039 44.1562C52.0219 45.4985 32.0551 45.5 32 45.5C32 45.5 11.9852 45.5004 6.99609 44.1562C4.24084 43.4155 2.07545 41.2401 1.33789 38.4727C-0.000216722 33.4614 0 23 0 23C0 23 -0.000237584 12.5385 1.33789 7.52734C2.07545 4.75988 4.24085 2.58462 6.99609 1.84375C11.9852 0.499677 32 0.5 32 0.5ZM26 32.7822L42.627 23.1416L26 13.5V32.7822Z" fill="currentColor"/>
</svg>
