<svg width="60" height="60" viewBox="0 0 60 60" fill="none" xmlns="http://www.w3.org/2000/svg">
<path fill-rule="evenodd" clip-rule="evenodd" d="M58.82 52C58.24 53.48 56.9 55.56 54.98 57.04C53.88 57.88 52.56 58.7 50.76 59.24C48.84 59.82 46.46 60 43.5 60H16.5C13.54 60 11.18 59.8 9.24 59.24C7.44 58.7 6.12 57.9 5.02 57.04C3.12 55.58 1.76 53.48 1.18 52C0.02 49.02 0 45.64 0 43.5V16.5C0 14.36 0.02 10.98 1.18 8C1.76 6.52 3.1 4.44 5.02 2.96C6.12 2.12 7.44 1.3 9.24 0.76C11.18 0.2 13.54 0 16.5 0H43.5C46.46 0 48.82 0.2 50.76 0.76C52.56 1.3 53.88 2.1 54.98 2.96C56.88 4.42 58.24 6.52 58.82 8C60 10.98 60 14.38 60 16.5V43.5C60 45.64 59.98 49.02 58.82 52Z" fill="url(#paint0_linear_109_425)" style=""/>
<path d="M35.14 36.22C35.06 35.5 34.82 34.98 34.34 34.5C33.44 33.56 31.86 32.94 30 32.94C28.14 32.94 26.56 33.54 25.66 34.5C25.2 35 24.94 35.5 24.86 36.22C24.7 37.62 24.8 38.82 24.96 40.76C25.12 42.6 25.42 45.06 25.8 47.54C26.08 49.32 26.3 50.28 26.5 50.96C26.84 52.08 28.06 53.04 30 53.04C31.94 53.04 33.18 52.06 33.5 50.96C33.7 50.28 33.92 49.32 34.2 47.54C34.58 45.04 34.88 42.6 35.04 40.76C35.22 38.82 35.3 37.62 35.14 36.22Z" fill="white" style="fill:white;fill-opacity:1;"/>
<path d="M34.92 26.02C34.92 28.74 32.72 30.94 30 30.94C27.28 30.94 25.08 28.74 25.08 26.02C25.08 23.3 27.28 21.1 30 21.1C32.72 21.1 34.92 23.32 34.92 26.02Z" fill="white" style="fill:white;fill-opacity:1;"/>
<path d="M29.94 6.64C18.46 6.68 9.06 16 8.9 27.48C8.78 36.78 14.72 44.74 23.02 47.66C23.22 47.74 23.42 47.56 23.4 47.36C23.3 46.64 23.18 45.92 23.1 45.2C23.06 44.94 22.9 44.74 22.68 44.62C16.12 41.76 11.54 35.18 11.62 27.56C11.72 17.56 19.88 9.42 29.86 9.34C40.08 9.26 48.42 17.54 48.42 27.74C48.42 35.28 43.86 41.76 37.36 44.62C37.12 44.72 36.96 44.94 36.94 45.2C36.84 45.92 36.74 46.64 36.64 47.36C36.6 47.58 36.82 47.74 37.02 47.66C45.24 44.78 51.14 36.94 51.14 27.74C51.1 16.1 41.6 6.62 29.94 6.64Z" fill="white" style="fill:white;fill-opacity:1;"/>
<path d="M29.46 13.64C21.98 13.92 15.98 20.1 15.88 27.58C15.82 32.5 18.28 36.86 22.06 39.44C22.24 39.56 22.5 39.42 22.5 39.2C22.44 38.34 22.44 37.58 22.48 36.78C22.5 36.52 22.4 36.28 22.2 36.1C19.9 33.94 18.5 30.86 18.58 27.46C18.74 21.46 23.56 16.58 29.56 16.34C36.08 16.08 41.44 21.32 41.44 27.76C41.44 31.04 40.04 34 37.82 36.1C37.64 36.28 37.54 36.52 37.54 36.78C37.58 37.56 37.56 38.32 37.52 39.18C37.5 39.4 37.76 39.56 37.96 39.42C41.68 36.88 44.14 32.58 44.14 27.74C44.16 19.78 37.5 13.32 29.46 13.64Z" fill="white" style="fill:white;fill-opacity:1;"/>
<defs>
<linearGradient id="paint0_linear_109_425" x1="30" y1="0" x2="30" y2="60" gradientUnits="userSpaceOnUse">
<stop stop-color="#F452FF" style="stop-color:#F452FF;stop-color:color(display-p3 0.9569 0.3216 1.0000);stop-opacity:1;"/>
<stop offset="1" stop-color="#832BC1" style="stop-color:#832BC1;stop-color:color(display-p3 0.5137 0.1686 0.7569);stop-opacity:1;"/>
</linearGradient>
</defs>
</svg>
