<svg width="24" height="24" viewBox="0 0 24 24" xmlns="http://www.w3.org/2000/svg">
  <path fill="white" d="M11.93 4a7.93 7.93 0 00-7.93 8c0 2.2.9 4.18 2.33 5.6a7.94 7.94 0 005.6 2.33A7.94 7.94 0 0020 12a7.94 7.94 0 00-8.07-8zM12 5.5a6.5 6.5 0 015.47 10.01c-.4.47-.73.88-1.14 1.55-.42.66-.68 1.09-1.72 2.17l-.46.47-.44-.5a6.5 6.5 0 01-1.15-1.7 10.89 10.89 0 01-.89-1.91l-.24-.77-.06-.24.2-.15a3.15 3.15 0 001.47-2.31 2.92 2.92 0 00-2.02-2.94 3.08 3.08 0 00-3.85 1.74 2.85 2.85 0 00.4 2.84c.38.5.86.83 1.45 1l.18.04.04.18a13.33 13.33 0 01-.91 2.67c-.4.74-.82 1.41-1.49 1.95l-.18.15-.21-.11a6.49 6.49 0 01-1.8-15.07A6.42 6.42 0 0112 5.5z"/>
  <circle fill="white" cx="12" cy="9.5" r="1.5"/>
</svg> 