<?xml version="1.0" encoding="UTF-8"?>
<svg version="1.1" xmlns="http://www.w3.org/2000/svg" width="1536" height="1536">
<path d="M0 0 C506.88 0 1013.76 0 1536 0 C1536 506.88 1536 1013.76 1536 1536 C1029.12 1536 522.24 1536 0 1536 C0 1029.12 0 522.24 0 0 Z " fill="currentColor" transform="translate(0,0)"/>
<path d="M0 0 C251.79 0 503.58 0 763 0 C763 0.33 763 0.66 763 1 C762.34773437 1.17015625 761.69546875 1.3403125 761.0234375 1.515625 C754.98815857 3.16926439 754.98815857 3.16926439 749.5625 6.1875 C747 8 747 8 744 8 C744 8.66 744 9.32 744 10 C742.28170141 11.22263554 740.56078899 12.44196016 738.8203125 13.6328125 C735.80362856 15.89856224 733.67875123 18.64249755 732 22 C731.34 22 730.68 22 730 22 C730 22.66 730 23.32 730 24 C729.34 24 728.68 24 728 24 C727.773125 24.680625 727.54625 25.36125 727.3125 26.0625 C725.92059375 29.17771875 724.20593297 31.57516624 722.12109375 34.25390625 C720.89936511 36.15673796 720.42985408 37.79277175 720 40 C719.34 40 718.68 40 718 40 C717.92652344 40.64453125 717.85304688 41.2890625 717.77734375 41.953125 C716.68296138 46.24266394 714.65425553 49.86764937 712.5625 53.75 C711.95051758 54.91982422 711.95051758 54.91982422 711.32617188 56.11328125 C708.25671495 61.87164252 708.25671495 61.87164252 706 63 C705.31270746 65.11846285 705.31270746 65.11846285 704.875 67.5625 C704.62363281 68.80193359 704.62363281 68.80193359 704.3671875 70.06640625 C704.24601563 70.70449219 704.12484375 71.34257813 704 72 C703.34 72 702.68 72 702 72 C701.60554687 73.32064453 701.60554687 73.32064453 701.203125 74.66796875 C700.02721738 77.92462199 698.64687082 80.42874368 696.75 83.3125 C696.1209375 84.26898438 695.491875 85.22546875 694.84375 86.2109375 C694.2353125 87.13132812 693.626875 88.05171875 693 89 C692.5359375 89.75539063 692.071875 90.51078125 691.59375 91.2890625 C687.8658791 97.24932121 683.29889075 102.21394418 678.48828125 107.30078125 C676.02574052 109.8503499 676.02574052 109.8503499 674.35546875 112.35546875 C673.90816406 112.89816406 673.46085938 113.44085938 673 114 C672.01 114 671.02 114 670 114 C669.34 115.32 668.68 116.64 668 118 C667.34 118 666.68 118 666 118 C666 118.66 666 119.32 666 120 C664.20703125 121.33203125 664.20703125 121.33203125 661.8125 122.8125 C659.06428065 124.57374274 656.94525871 126.05770028 654.6875 128.4375 C648.9194405 133.93727766 637.21084327 142 629 142 C629 142.66 629 143.32 629 144 C627.35 144 625.7 144 624 144 C624 144.66 624 145.32 624 146 C613.19425558 149.97627112 603.17691804 152.93224236 591.7578125 154.53515625 C589.04941537 154.85348831 589.04941537 154.85348831 587 156 C577.53599657 157.30210137 567.91175501 157.23988178 558.375 157.25 C557.62598419 157.25133942 556.87696838 157.25267883 556.10525513 157.25405884 C541.5606802 157.24842479 527.68260344 156.3314972 514 151 C511.66815648 150.1625069 509.33467889 149.32955612 507 148.5 C505.80503906 148.06816406 504.61007812 147.63632813 503.37890625 147.19140625 C500.57911351 146.20419609 497.77563703 145.30457692 494.9375 144.4375 C491.27450502 143.22770349 488.9265151 141.56070072 486 139 C483.61585976 137.42541502 481.21071139 135.88961598 478.79296875 134.3671875 C478.20128906 133.91601562 477.60960937 133.46484375 477 133 C477 132.34 477 131.68 477 131 C476.113125 130.7525 475.22625 130.505 474.3125 130.25 C470.84625474 128.94198292 468.86380041 127.30501008 466 125 C464.36897487 124.31496945 462.73676083 123.63232559 461.09375 122.9765625 C455.52408017 120.37876873 450.22864002 116.81248964 445.46875 112.94140625 C439.67878669 108.38822308 433.05416772 105.899199 426 104 C425.0925 103.505 424.185 103.01 423.25 102.5 C414.36690358 98.40010935 402.2288617 97.21378231 392.8125 99.9140625 C389.8913829 100.98656589 389.8913829 100.98656589 386.8125 102.625 C384 104 384 104 381 104 C381 104.66 381 105.32 381 106 C379.35 106.66 377.7 107.32 376 108 C376 108.66 376 109.32 376 110 C375.34 110 374.68 110 374 110 C373.731875 110.721875 373.46375 111.44375 373.1875 112.1875 C372 115 372 115 370.4609375 117.23828125 C368.6640078 120.63515103 368.56527562 123.17497494 368.4375 127 C368.27611482 131.53834678 367.81301084 134.85112501 366 139 C362.48145502 152.79182756 363.84846597 167.15527752 364.77148438 181.1862793 C368.13165473 232.3025179 368.13165473 232.3025179 361 243 C360.48625833 245.19610452 360.03568316 247.40731091 359.625 249.625 C358.41175914 255.57478219 356.68829657 260.59075549 354 266 C353.525625 267.155 353.05125 268.31 352.5625 269.5 C350.99011102 273.02215131 349.21912629 276.32862833 347.31640625 279.6796875 C346.45531257 281.19746094 345.60829956 282.72333181 344.77734375 284.2578125 C342.63061645 288.21993942 340.39019612 292.11685403 338 295.9375 C337.319375 297.03384766 337.319375 297.03384766 336.625 298.15234375 C335 300 335 300 332.4375 301.00390625 C329.39693869 302.24644332 329.31620244 303.08079615 328 306 C326.34672738 307.927405 324.68072932 309.78338894 322.9375 311.625 C321.94451076 312.68414474 320.95233624 313.74405385 319.9609375 314.8046875 C319.46432617 315.33545898 318.96771484 315.86623047 318.45605469 316.41308594 C315.53173952 319.60021682 312.75679237 322.92463561 309.97265625 326.234375 C308 328 308 328 304 328 C304 328.66 304 329.32 304 330 C303.34 330 302.68 330 302 330 C302 330.66 302 331.32 302 332 C301.01 332 300.02 332 299 332 C299 332.66 299 333.32 299 334 C298.01 334 297.02 334 296 334 C295.67 334.99 295.34 335.98 295 337 C292.4375 338.1875 292.4375 338.1875 290 339 C290 339.66 290 340.32 290 341 C288.02 341.33 286.04 341.66 284 342 C284 342.99 284 343.98 284 345 C282.3767313 345.6708712 280.75132422 346.33657029 279.125 347 C278.22007812 347.37125 277.31515625 347.7425 276.3828125 348.125 C274 349 274 349 272 349 C272 349.66 272 350.32 272 351 C271.113125 351.391875 270.22625 351.78375 269.3125 352.1875 C265.92022743 353.79465932 265.92022743 353.79465932 263.7890625 356.54296875 C260.33147483 359.58893884 257.48169642 359.87059872 253.0625 360.125 C247.73616512 360.4930194 243.73561561 361.4093397 239 364 C236.4375 364.125 236.4375 364.125 234 364 C231.5696362 364.4378672 229.17438321 364.95808684 226.7734375 365.53515625 C220.5662464 366.89992954 214.51825579 367.21541565 208.1875 367.25 C207.37522949 367.259104 206.56295898 367.26820801 205.72607422 367.27758789 C201.04194527 367.25395016 197.43881943 366.62199538 193 365 C183.56446744 363.61087993 173.83195731 363.87857418 164.3125 363.82476807 C162.93943248 363.81660085 161.56637922 363.80550068 160.19335938 363.79144287 C158.23834942 363.77355736 156.283216 363.77126977 154.328125 363.76953125 C152.60964355 363.76336792 152.60964355 363.76336792 150.85644531 363.75708008 C147.79878362 363.78588883 147.79878362 363.78588883 145 366 C142.75084226 366.06498823 140.49812902 366.03157407 138.25 365.9375 C132.56755254 365.84944555 128.8853833 366.11318259 124 369 C123.34 369.66 122.68 370.32 122 371 C121.13375 371.0825 120.2675 371.165 119.375 371.25 C114.65901364 372.29799697 111.62163002 374.8957457 108 378 C107.47148438 378.43183594 106.94296875 378.86367188 106.3984375 379.30859375 C100.28282503 386.70540995 99.96262971 399.82816024 100.74267578 408.94238281 C103.22176946 428.76572394 114.39382195 448.165759 125.9375 464.0625 C128 467 128 467 128 469 C128.66 469 129.32 469 130 469 C131.18920898 470.57299805 131.18920898 470.57299805 132.49609375 472.76171875 C132.97240234 473.55126953 133.44871094 474.34082031 133.93945312 475.15429688 C134.43380859 475.99025391 134.92816406 476.82621094 135.4375 477.6875 C135.92798828 478.50412109 136.41847656 479.32074219 136.92382812 480.16210938 C137.87391934 481.74559474 138.81978416 483.33162518 139.76098633 484.92041016 C140.72848774 486.5442874 141.72248808 488.15238484 142.7265625 489.75390625 C144.11220695 492.19791103 145.03212591 494.59216361 145.9375 497.25 C147.14449978 500.7276392 148.45555781 503.97317666 150.125 507.25 C152.98811819 513.41584901 153.33030852 520.31189694 154 527 C154.66 527 155.32 527 156 527 C159.80345724 544.98867829 160.95822693 562.66882011 159 581 C158.9278125 581.80695312 158.855625 582.61390625 158.78125 583.4453125 C158.03951658 591.26000394 155.57263494 598.34107291 153.0703125 605.74609375 C151.9855755 609.0438526 150.98858316 612.35978897 150 615.6875 C145.94731554 628.89799469 138.80920775 646.19079225 129 656 C128.01 656 127.02 656 126 656 C125.34 657.98 124.68 659.96 124 662 C123.34 662 122.68 662 122 662 C121.74347656 662.56332031 121.48695312 663.12664063 121.22265625 663.70703125 C116.39130113 672.76775156 107.63558268 682.40091285 99 688 C98.01 688 97.02 688 96 688 C95.78214844 688.58394531 95.56429687 689.16789063 95.33984375 689.76953125 C93.56412825 692.72560575 91.4907477 693.89477465 88.5625 695.6875 C87.59441406 696.28949219 86.62632813 696.89148438 85.62890625 697.51171875 C83 699 83 699 80 700 C80 701.32 80 702.64 80 704 C79.29875 704.03738281 78.5975 704.07476563 77.875 704.11328125 C71.65473822 704.54430482 66.74172729 705.59891404 61 708 C60.34 708 59.68 708 59 708 C59 708.66 59 709.32 59 710 C58.45472656 710.23074219 57.90945312 710.46148438 57.34765625 710.69921875 C51.69031535 713.14589781 46.34505997 715.93782156 41 719 C39.35639774 719.94140599 37.71061101 720.87900993 36.0625 721.8125 C35.33160156 722.23144531 34.60070313 722.65039062 33.84765625 723.08203125 C32 724 32 724 30 724 C30 724.66 30 725.32 30 726 C29.34 726 28.68 726 28 726 C27.87625 726.61875 27.7525 727.2375 27.625 727.875 C27 730 27 730 25 732 C22.68234271 732.71927295 20.34904126 733.3909893 18 734 C18 734.66 18 735.32 18 736 C16.83370548 737.06860995 15.61494068 738.0802998 14.375 739.0625 C6.91306545 745.45467048 3.25721007 752.5157577 1 762 C0.67 762 0.34 762 0 762 C0 510.54 0 259.08 0 0 Z " fill="currentColor" transform="translate(0,0)"/>
<path d="M0 0 C0.33 0 0.66 0 1 0 C1 251.79 1 503.58 1 763 C-250.46 763 -501.92 763 -761 763 C-759.68 762.34 -758.36 761.68 -757 761 C-756.02804687 760.50242187 -755.05609375 760.00484375 -754.0546875 759.4921875 C-752.48074219 758.69167969 -752.48074219 758.69167969 -750.875 757.875 C-749.82054687 757.33617187 -748.76609375 756.79734375 -747.6796875 756.2421875 C-745 755 -745 755 -743 755 C-742.67 754.01 -742.34 753.02 -742 752 C-740.43359375 750.52734375 -740.43359375 750.52734375 -738.4375 748.9375 C-725.92170135 738.24784991 -717.76724361 723.13937079 -710.7265625 708.49609375 C-709 705 -709 705 -707.37109375 702.296875 C-706.0842466 700.14113105 -705.25940521 698.17493958 -704.4375 695.8125 C-700.11667704 684.78695175 -694.22902679 673.51989496 -685.9296875 665.00390625 C-683.77416146 662.76547536 -681.90359195 660.3929114 -680 657.9375 C-672.9975125 649.14367849 -665.12195436 642.54579267 -656 636 C-655.04738281 635.31035156 -654.09476563 634.62070313 -653.11328125 633.91015625 C-646.4409367 629.1469789 -646.4409367 629.1469789 -643 628 C-643 627.34 -643 626.68 -643 626 C-642.14921875 625.73960937 -641.2984375 625.47921875 -640.421875 625.2109375 C-635.65603289 623.5243952 -631.31012432 621.17442516 -626.828125 618.8515625 C-618.23148669 614.59437559 -609.60143701 611.95922358 -600.25 609.875 C-599.17234375 609.62363281 -598.0946875 609.37226562 -596.984375 609.11328125 C-583.35427909 606.01405706 -570.1240871 604.59013771 -556.1875 604.625 C-555.43987396 604.62487915 -554.69224792 604.6247583 -553.92196655 604.62463379 C-542.72605374 604.65038012 -532.71226452 605.56688439 -522 609 C-520.67465428 609.33791709 -519.34638045 609.66452705 -518.015625 609.98046875 C-511.26571873 611.59777139 -505.13415369 613.55555848 -499.05078125 616.94921875 C-497.03309081 617.9830449 -495.21316289 618.54537737 -493 619 C-493 619.66 -493 620.32 -493 621 C-492.37351562 621.20496094 -491.74703125 621.40992188 -491.1015625 621.62109375 C-489.87566406 622.02521484 -489.87566406 622.02521484 -488.625 622.4375 C-487.40683594 622.83775391 -487.40683594 622.83775391 -486.1640625 623.24609375 C-484 624 -484 624 -482 625 C-482 625.66 -482 626.32 -482 627 C-481.175 627.185625 -480.35 627.37125 -479.5 627.5625 C-476.23843155 628.90207276 -474.88471545 629.85647548 -472.3984375 632.19140625 C-467.96401249 636.16369922 -463.18929664 639.26879321 -458.125 642.375 C-457.27164062 642.90738281 -456.41828125 643.43976562 -455.5390625 643.98828125 C-451.34502261 646.62766382 -451.34502261 646.62766382 -447 649 C-447 649.66 -447 650.32 -447 651 C-445.98550781 651.09539063 -444.97101563 651.19078125 -443.92578125 651.2890625 C-439.75335033 652.0446669 -436.90253713 653.36251132 -433.1875 655.375 C-428.17338417 658.02221653 -423.29222661 660.07476052 -417.79296875 661.4921875 C-416 662 -416 662 -415 663 C-402.89630588 665.14417174 -391.63725733 665.73104458 -381 659 C-380.01 658.67 -379.02 658.34 -378 658 C-377.29764084 656.68511832 -376.6335393 655.34938882 -376 654 C-375.06145798 653.04268714 -374.10162356 652.10593097 -373.125 651.1875 C-368.42280592 645.82173596 -367.46105316 638.7820508 -366 632 C-365.71125 630.72898437 -365.4225 629.45796875 -365.125 628.1484375 C-361.52709071 611.43891648 -361.52426815 595.02216069 -363 578.0625 C-365.78196077 543.12562855 -365.78196077 543.12562855 -360.9375 526.3125 C-360.17972148 523.63501591 -359.86671694 521.65562366 -359.6875 518.9375 C-359.06652724 512.42293125 -356.80000865 505.89134769 -354 500 C-353.01 499.67 -352.02 499.34 -351 499 C-351.144375 498.030625 -351.28875 497.06125 -351.4375 496.0625 C-351.48609871 491.26094781 -348.65089659 488.64637213 -345.67578125 485.140625 C-343.67277716 482.58200906 -342.93335267 480.08724345 -342 477 C-341.071875 476.1028125 -341.071875 476.1028125 -340.125 475.1875 C-337.94793218 472.94640077 -337.22455398 471.41353121 -336.0625 468.5625 C-334.3097172 464.36413488 -332.52340885 461.87435985 -329 459 C-328.34 459 -327.68 459 -327 459 C-327 456.36 -327 453.72 -327 451 C-324.36 451 -321.72 451 -319 451 C-319 449.35 -319 447.7 -319 446 C-317.68 445.67 -316.36 445.34 -315 445 C-315 444.34 -315 443.68 -315 443 C-313.68 443 -312.36 443 -311 443 C-311 440.36 -311 437.72 -311 435 C-308.36 435 -305.72 435 -303 435 C-302.938125 434.4225 -302.87625 433.845 -302.8125 433.25 C-301.66615826 430.07551517 -299.74043158 428.87151425 -297 427 C-296.34 427 -295.68 427 -295 427 C-294.67 426.01 -294.34 425.02 -294 424 C-293.34 424 -292.68 424 -292 424 C-291.67 423.01 -291.34 422.02 -291 421 C-290.34 421 -289.68 421 -289 421 C-289 420.34 -289 419.68 -289 419 C-285.7 419 -282.4 419 -279 419 C-279 418.01 -279 417.02 -279 416 C-268.62642369 410.25968109 -268.62642369 410.25968109 -263 411 C-262.87625 410.360625 -262.7525 409.72125 -262.625 409.0625 C-262.315625 408.0415625 -262.315625 408.0415625 -262 407 C-261.34 406.67 -260.68 406.34 -260 406 C-259.67 405.01 -259.34 404.02 -259 403 C-257.68386719 402.96261719 -256.36773438 402.92523437 -255.01171875 402.88671875 C-242.55964332 402.53900767 -242.55964332 402.53900767 -230.484375 399.71875 C-223.21533978 397.61575868 -215.62636919 397.80855458 -208.125 397.8125 C-206.99022217 397.81113037 -205.85544434 397.80976074 -204.6862793 397.80834961 C-196.68009166 397.85305225 -188.78330317 398.3415922 -180.8125 399.0625 C-172.34607734 399.81429023 -164.05780672 400.12269283 -155.5625 399.75 C-154.65798096 399.71140869 -153.75346191 399.67281738 -152.8215332 399.63305664 C-147.250434 399.31812121 -141.89304509 398.52337213 -136.42553711 397.41113281 C-134 397 -134 397 -130 397 C-130 396.34 -130 395.68 -130 395 C-129.45988281 394.88140625 -128.91976562 394.7628125 -128.36328125 394.640625 C-117.93275034 391.8131753 -108.77249797 387.60496256 -103.04296875 378.2578125 C-96.97267134 365.11686904 -99.05375099 349.52559398 -103.61328125 336.28515625 C-104.86824046 333.31214022 -106.25237579 330.70522652 -108 328 C-109.67803092 325.34311771 -111.06001344 322.85296707 -112.25 319.9375 C-115.00461159 313.30335689 -119.01818624 307.20205717 -122.7890625 301.109375 C-123.33304688 300.22765625 -123.87703125 299.3459375 -124.4375 298.4375 C-124.93121094 297.65246094 -125.42492188 296.86742187 -125.93359375 296.05859375 C-127 294 -127 294 -127 291 C-127.60593994 290.91621094 -128.21187988 290.83242187 -128.83618164 290.74609375 C-131.67331405 289.76783846 -132.17724371 288.65772423 -133.62109375 286.0625 C-134.08193359 285.24910156 -134.54277344 284.43570312 -135.01757812 283.59765625 C-135.48615234 282.74042969 -135.95472656 281.88320312 -136.4375 281 C-137.13456055 279.76056641 -137.13456055 279.76056641 -137.84570312 278.49609375 C-139.24359556 276.00445284 -140.62232415 273.50286343 -142 271 C-143.32772921 268.62401546 -144.65620631 266.2484545 -145.98583984 263.87353516 C-148.90510539 258.48055397 -150.66429857 252.63765408 -151.4375 246.5625 C-151.87299166 242.94861341 -151.87299166 242.94861341 -153.375 239.5625 C-161.01247341 219.43418337 -162.14296709 186.47403296 -153.45703125 166.44140625 C-152.07273976 163.17180625 -151.44679657 160.49990643 -151 157 C-150.27201425 152.1406951 -149.15352956 148.39678953 -147 144 C-146.32723284 142.3357865 -145.65793165 140.67013418 -145 139 C-144.34 139 -143.68 139 -143 139 C-143.0309375 137.3603125 -143.0309375 137.3603125 -143.0625 135.6875 C-143 132 -143 132 -142 129 C-141.34 128.67 -140.68 128.34 -140 128 C-139.67 127.34 -139.34 126.68 -139 126 C-138 124 -138 124 -136 123 C-134.88884395 117.66645094 -134.88916584 112.43087408 -135 107 C-131.04 107.495 -131.04 107.495 -127 108 C-126.938125 107.443125 -126.87625 106.88625 -126.8125 106.3125 C-125.6519231 103.00931958 -123.59786554 101.28105267 -121 99 C-120.34 99 -119.68 99 -119 99 C-118.938125 98.4225 -118.87625 97.845 -118.8125 97.25 C-117.66615826 94.07551517 -115.74043158 92.87151425 -113 91 C-112.34 91 -111.68 91 -111 91 C-110.896875 90.236875 -110.79375 89.47375 -110.6875 88.6875 C-109.94460116 85.78344089 -109.43006017 84.71004234 -107 83 C-105.68 83 -104.36 83 -103 83 C-103 80.69 -103 78.38 -103 76 C-100.36 75.67 -97.72 75.34 -95 75 C-94.67 74.01 -94.34 73.02 -94 72 C-89.66666667 69 -89.66666667 69 -87 69 C-87 68.34 -87 67.68 -87 67 C-86.34 67 -85.68 67 -85 67 C-84.67 66.01 -84.34 65.02 -84 64 C-82.948125 63.87625 -81.89625 63.7525 -80.8125 63.625 C-77.54041229 63.08859218 -74.99463924 62.36119965 -72 61 C-72 60.34 -72 59.68 -72 59 C-69.03 58.34 -66.06 57.68 -63 57 C-62.67 55.68 -62.34 54.36 -62 53 C-61.2575 52.87625 -60.515 52.7525 -59.75 52.625 C-57.17069951 52.03879534 -55.2517838 51.36715445 -53 50 C-52.67 49.34 -52.34 48.68 -52 48 C-49.7591427 47.39737901 -47.51429025 47.04392817 -45.2265625 46.66015625 C-42.67194027 45.90273317 -41.78648327 44.91972926 -40 43 C-38.30795571 42.28413511 -36.6143279 41.57124855 -34.90625 40.89453125 C-32.80663359 39.90926044 -31.10165549 38.70516462 -29.25 37.3125 C-26 35 -26 35 -23 35 C-22.938125 34.4225 -22.87625 33.845 -22.8125 33.25 C-21.66615826 30.07551517 -19.74043158 28.87151425 -17 27 C-16.34 27 -15.68 27 -15 27 C-14.7525 26.4225 -14.505 25.845 -14.25 25.25 C-12.81700012 22.67060021 -11.21575324 20.93878408 -9 19 C-8.34 19 -7.68 19 -7 19 C-7 16.36 -7 13.72 -7 11 C-6.37609375 10.93941406 -5.7521875 10.87882813 -5.109375 10.81640625 C-2.76632566 10.19151441 -2.76632566 10.19151441 -1.953125 7.71484375 C-1.72109375 6.79832031 -1.4890625 5.88179687 -1.25 4.9375 C-1.00765625 4.01839844 -0.7653125 3.09929688 -0.515625 2.15234375 C-0.34546875 1.44207031 -0.1753125 0.73179687 0 0 Z " fill="currentColor" transform="translate(1535,773)"/>
<path d="M0 0 C252.12 0 504.24 0 764 0 C764 252.12 764 504.24 764 764 C762.22670069 761.34005104 761.31173429 759.27883659 760.25 756.3125 C758.24044089 751.16862856 755.51554258 747.22053106 752 743 C748 738.15789474 748 738.15789474 748 736 C747.12601563 735.85111328 747.12601563 735.85111328 746.234375 735.69921875 C743.57250359 734.86622053 742.2795894 733.71209504 740.25 731.8125 C732.70239097 725.01410216 725.1890757 720.37101979 716 716 C714.58138202 715.2955828 713.16443221 714.58778474 711.75 713.875 C711.13640625 713.56820312 710.5228125 713.26140625 709.890625 712.9453125 C706.59375 711.296875 703.296875 709.6484375 700 708 C700 706.68 700 705.36 700 704 C699.03900391 704.08701172 699.03900391 704.08701172 698.05859375 704.17578125 C692.4921194 704.46613386 689.12239604 704.20392538 684.86328125 700.484375 C682.68516709 698.74918972 680.32740361 697.47494542 677.90161133 696.11962891 C674.6833592 694.22478948 671.69938943 692.01561139 668.6875 689.8125 C664.49719423 686.66143234 664.49719423 686.66143234 660 684 C660 683.34 660 682.68 660 682 C659.34 682 658.68 682 658 682 C656.64613064 680.34997172 655.31321858 678.6825613 654 677 C653.34 676.67 652.68 676.34 652 676 C652 674.68 652 673.36 652 672 C646.72 672 641.44 672 636 672 C636 669.36 636 666.72 636 664 C637.32 663.67 638.64 663.34 640 663 C639.55269531 662.39414062 639.10539062 661.78828125 638.64453125 661.1640625 C628 646.41151386 628 646.41151386 628 640 C627.38640625 639.94457031 626.7728125 639.88914062 626.140625 639.83203125 C624 639 624 639 622.734375 636.63671875 C622.40953125 635.66347656 622.0846875 634.69023438 621.75 633.6875 C621.41484375 632.72199219 621.0796875 631.75648438 620.734375 630.76171875 C620 628 620 628 620 624 C619.01 623.67 618.02 623.34 617 623 C615.71875 620.12109375 615.71875 620.12109375 614.5 616.4375 C614.0978125 615.23996094 613.695625 614.04242187 613.28125 612.80859375 C613.07514603 612.18215469 612.86904205 611.55571564 612.6566925 610.91029358 C612.00189523 609.00551316 611.26911497 607.14625584 610.52416992 605.27514648 C608.98148289 601.1633557 608.04008323 597.11683931 607.33203125 592.7890625 C607.20568802 592.01809235 607.07934479 591.24712219 606.94917297 590.45278931 C605.68098181 581.9813084 605.58178369 573.55462627 605.66381836 565.00390625 C605.68754971 562.36948149 605.68432797 559.7360685 605.67773438 557.1015625 C605.71876113 532.84371662 605.71876113 532.84371662 609 523 C609.66 523 610.32 523 611 523 C610.99097656 522.3915625 610.98195313 521.783125 610.97265625 521.15625 C611.21940717 513.8610054 613.29616873 508.28984454 616.47290039 501.8359375 C618.72162548 497.15849519 619.58486615 493.18340738 620 488 C621.65 488 623.3 488 625 488 C625.2475 487.1234375 625.495 486.246875 625.75 485.34375 C627.44187191 480.81799264 630.17132125 477.56022135 633.125 473.78125 C635.1491073 471.05521893 635.1491073 471.05521893 636.0625 467.71875 C636.371875 466.8215625 636.68125 465.924375 637 465 C637.99 464.67 638.98 464.34 640 464 C640.68548797 462.00637248 641.34914688 460.0052019 642 458 C643.875 455.2265625 643.875 455.2265625 646 452.625 C646.70125 451.75101562 647.4025 450.87703125 648.125 449.9765625 C649.053125 448.99816406 649.053125 448.99816406 650 448 C650.66 448 651.32 448 652 448 C651.87625 446.2675 651.87625 446.2675 651.75 444.5 C651.72747429 440.26516649 652.93631822 437.48681714 655.02734375 433.859375 C656.08628016 432.01988369 656.08628016 432.01988369 656.50390625 429.890625 C657 428 657 428 659 426 C659.45811675 424.02764667 659.45811675 424.02764667 659.625 421.875 C659.74875 420.59625 659.8725 419.3175 660 418 C660.66 418 661.32 418 662 418 C664.388208 399.88566881 664.388208 399.88566881 659 383 C656.52719131 380.37080815 653.86532898 378.1831078 651 376 C650.34 375.34 649.68 374.68 649 374 C635.65689117 366.73541852 621.41590486 363.82557706 606.37890625 363.8671875 C605.59410385 363.86623077 604.80930145 363.86527405 604.00071716 363.86428833 C602.35456257 363.86361327 600.70840521 363.86542005 599.06225586 363.86962891 C596.57204071 363.8749795 594.08200648 363.86966451 591.59179688 363.86328125 C584.45296956 363.86042272 577.42592612 363.91339781 570.32885742 364.76416016 C555.69772974 366.24583217 541.27781693 365.24718351 527 362 C525.0015254 361.71813128 523.00153945 361.44671138 521 361.1875 C513.96820528 360.05395932 507.51633506 357.40872082 500.93994141 354.76293945 C498.95511773 353.98234872 496.95334777 353.2653397 494.9453125 352.546875 C491.11187078 351.11539403 487.66034226 349.25726735 484.125 347.1875 C483.5256665 346.8371167 482.92633301 346.4867334 482.30883789 346.12573242 C481.10324596 345.41950572 479.89918453 344.7106589 478.69677734 343.99902344 C477.15631778 343.09203631 475.60414821 342.20501156 474.05078125 341.3203125 C463.41495421 335.18364697 463.41495421 335.18364697 461 329.75 C460.67 329.1725 460.34 328.595 460 328 C458.88044922 327.82017578 458.88044922 327.82017578 457.73828125 327.63671875 C454.32577721 326.84322637 452.75449758 325.41664538 450.1875 323.0625 C449.39730469 322.35222656 448.60710937 321.64195312 447.79296875 320.91015625 C446 319 446 319 446 317 C445.34 317 444.68 317 444 317 C442.55473264 315.26451831 441.1912778 313.46024037 439.875 311.625 C439.15054687 310.62726563 438.42609375 309.62953125 437.6796875 308.6015625 C436 306 436 306 436 304 C435.4121875 303.92136719 434.824375 303.84273438 434.21875 303.76171875 C424.82311792 300.53610562 417.42747091 280.91228694 413.22949219 272.63623047 C411.09034635 268.04955519 409.74820184 263.42740181 408.6484375 258.484375 C408.18354382 255.84647111 408.18354382 255.84647111 406 254 C403.65387034 245.90585267 402.55853303 237.51425888 401.64648438 229.15576172 C401.26969017 225.45842219 401.26969017 225.45842219 400 222 C399.90224907 219.79599324 399.86922567 217.58898496 399.8671875 215.3828125 C399.86575241 214.40246536 399.86575241 214.40246536 399.86428833 213.40231323 C399.86360757 212.01869613 399.86545463 210.63507582 399.86962891 209.25146484 C399.87496154 207.14022575 399.86968938 205.02920106 399.86328125 202.91796875 C399.86394239 201.5729162 399.86522428 200.22786378 399.8671875 198.8828125 C399.86831543 197.65965332 399.86944336 196.43649414 399.87060547 195.17626953 C400 192 400 192 400.5 190.05793762 C401.01823021 187.92496674 401.12689664 186.08831184 401.12939453 183.89672852 C401.13254669 183.09811905 401.13569885 182.29950958 401.13894653 181.47669983 C401.1369223 180.61942795 401.13489807 179.76215607 401.1328125 178.87890625 C401.13376923 177.98316391 401.13472595 177.08742157 401.13571167 176.16453552 C401.13639195 174.2656955 401.13454824 172.36685313 401.13037109 170.46801758 C401.12507722 167.60427404 401.13029172 164.74069143 401.13671875 161.87695312 C401.13988271 152.20060582 400.99017546 142.63447491 400 133 C399.34 133 398.68 133 398 133 C397.86464844 132.17757812 397.72929688 131.35515625 397.58984375 130.5078125 C395.47819915 119.55760758 391.11342924 111.57014666 382 105 C381.34 104.67 380.68 104.34 380 104 C380 103.34 380 102.68 380 102 C363.24944913 96.41648304 342.71636714 100.71114735 327.375 108.125 C318.68976594 112.49439759 310.41731229 117.59440173 302.19140625 122.765625 C300 124 300 124 298 124 C298 124.66 298 125.32 298 126 C295.953125 127.3671875 295.953125 127.3671875 293.25 128.875 C290.50154484 130.40995595 288.26625524 131.7262143 286.06640625 133.98828125 C283.50221457 136.48461152 280.90756485 137.75632102 277.6875 139.3125 C277.08301025 139.60664795 276.47852051 139.9007959 275.85571289 140.20385742 C273.90869509 141.14651085 271.95539764 142.07486563 270 143 C269.32775391 143.3196875 268.65550781 143.639375 267.96289062 143.96875 C234.44403518 159.87817804 192.7170096 164.07247435 157 152 C154.98473831 151.03112419 152.98166034 150.0358679 151 149 C149.0817451 148.52043628 147.16271731 148.04270916 145.234375 147.60546875 C141.01672712 146.46257466 137.02002561 144.69697802 133 143 C133 142.34 133 141.68 133 141 C132.319375 140.90589844 131.63875 140.81179687 130.9375 140.71484375 C127.32951958 139.83683788 124.24871707 138.30767165 121 136.5625 C120.01640503 136.03450806 120.01640503 136.03450806 119.01293945 135.49584961 C106.06957864 128.33041255 94.1283337 118.24726927 84.63671875 106.94140625 C83.566577 105.67204957 82.46552017 104.42796889 81.33203125 103.21484375 C76.09062291 97.56563704 72.0705323 91.20062895 68.03710938 84.67041016 C67.11857242 83.19097751 66.1780476 81.72524638 65.234375 80.26171875 C62.69911628 76.2475591 60.70245173 72.44177613 59.1875 67.9375 C53.73038109 51.92844163 43.75838507 35.91485423 33 23 C32.43152344 22.27425781 31.86304688 21.54851563 31.27734375 20.80078125 C23.19345506 10.96624151 12.76811173 3.03247493 0 1 C0 0.67 0 0.34 0 0 Z " fill="currentColor" transform="translate(772,0)"/>
<path d="M0 0 C0.66 0 1.32 0 2 0 C2.42410156 0.83402344 2.84820312 1.66804687 3.28515625 2.52734375 C6.63440443 8.95348366 10.01400995 14.72428871 14.71484375 20.29296875 C16 22 16 22 16 24 C16.52980469 24.23589844 17.05960938 24.47179687 17.60546875 24.71484375 C20.71771623 26.38520169 23.47730879 28.47078359 26.3125 30.5625 C41.78166394 41.75841423 58.55615901 50.31288363 76 58 C76 58.66 76 59.32 76 60 C76.83789062 60.07347656 77.67578125 60.14695312 78.5390625 60.22265625 C82.82451573 61.18519033 85.75831447 63.0251179 89.375 65.4375 C90.01566406 65.84548828 90.65632813 66.25347656 91.31640625 66.67382812 C92.91930896 67.7213541 94.46561034 68.85446252 96 70 C96 70.66 96 71.32 96 72 C96.763125 72.268125 97.52625 72.53625 98.3125 72.8125 C100.90483979 73.95795247 102.30075537 74.76415181 104 77 C104 77.99 104 78.98 104 80 C106.12953208 81.10420182 108.15701249 82.0523375 110.4375 82.8125 C115.95832189 85.37092966 118.83777075 90.04232941 121.7890625 95.1328125 C122.93811744 97.04671736 122.93811744 97.04671736 124.5625 98.5625 C126 100 126 100 127.375 102.875 C128.86354985 106.12076623 128.86354985 106.12076623 131.5625 108.5625 C134.05195081 111.05195081 135.05454837 112.64794422 136 116 C136 117.32 136 118.64 136 120 C136.66 120 137.32 120 138 120 C138 121.32 138 122.64 138 124 C138.66 124 139.32 124 140 124 C140.99 127.465 140.99 127.465 142 131 C142.66 131 143.32 131 144 131 C144.65061639 132.98799451 145.30067233 134.97617299 145.94921875 136.96484375 C146.71053762 139.1638949 147.5340066 141.34174767 148.39453125 143.50390625 C155.83008216 162.41254085 157.3618867 181.67557373 157.375 201.8125 C157.37799103 203.03481827 157.37799103 203.03481827 157.38104248 204.28182983 C157.37457884 227.58060118 157.37457884 227.58060118 153 236 C152.65654787 237.9080674 152.36914911 239.82670289 152.125 241.75 C151.40359174 246.40533771 150.34026045 249.9552077 148.05078125 254.04296875 C146.93024141 256.12992214 146.13045486 258.21520256 145.3125 260.4375 C140.78096984 271.925637 134.78083733 282.47515174 127.1328125 292.1484375 C124.2567941 295.99366356 121.97775801 300.08673702 119.703125 304.30859375 C118 307 118 307 115.51953125 309.375 C112.4870048 312.53446942 111.07904512 315.55563542 109.4375 319.5625 C109.14012939 320.26415283 108.84275879 320.96580566 108.53637695 321.6887207 C106.37872792 326.86084478 104.49659556 332.09912642 102.82421875 337.44921875 C102 340 102 340 100.96728516 342.31396484 C99.25926831 347.0569233 99.67254736 351.94630823 99.6875 356.9375 C99.67138672 358.00935547 99.65527344 359.08121094 99.63867188 360.18554688 C99.63510787 365.94141291 99.86784296 369.98359018 103 375 C103 375.66 103 376.32 103 377 C103.99 377.33 104.98 377.66 106 378 C107.36176581 379.98075027 108.69593116 381.98079663 110 384 C110.66 384.33 111.32 384.66 112 385 C112 385.66 112 386.32 112 387 C112.9590625 387.37125 112.9590625 387.37125 113.9375 387.75 C115.60281326 388.4297197 117.26278476 389.12838756 118.87890625 389.91796875 C140.49468258 400.30787229 168.95866954 399.5810582 192.3125 397 C213.99858834 394.62396269 235.34178978 396.48550965 256 404 C257.81371094 404.59361328 257.81371094 404.59361328 259.6640625 405.19921875 C275.08508965 410.40306967 289.25066792 418.9453217 302 429 C302.92039062 429.70640625 303.84078125 430.4128125 304.7890625 431.140625 C310.3846674 435.54928341 315.22250122 440.21083474 319.87890625 445.59765625 C321.87093429 447.85382061 323.94845524 449.92371833 326.125 452 C329.68342384 455.50909915 332.49095708 459.27626777 335.26953125 463.421875 C336.43960213 465.16509573 337.64682291 466.8838574 338.88671875 468.578125 C342.12029634 472.9980256 344.57341113 476.93536404 346.2578125 482.14453125 C347.07945309 484.19863271 348.13367746 485.6408214 349.5 487.375 C352.18297777 490.88536313 353.18701678 494.41508585 354.3125 498.6484375 C354.98186997 501.20855752 354.98186997 501.20855752 356.625 504.1875 C358.22588404 507.46203553 358.57665841 510.40159652 359 514 C359.33 514.33 359.66 514.66 360 515 C364.20600009 527.76502479 363.33950048 541.12514721 363.1875 554.375 C363.17242317 556.67186621 363.15874008 558.96874201 363.14648438 561.265625 C363.11372323 566.84396234 363.06376281 572.42193532 363 578 C362.34 578 361.68 578 361 578 C361.06988671 582.99516204 361.15830856 587.98956536 361.26245117 592.98413086 C361.29529407 594.67610099 361.32344596 596.36817004 361.34643555 598.06030273 C361.62886563 618.31714974 364.17224118 637.50150869 378.79296875 652.88671875 C382.26752571 656.05447156 385.35286216 657.86655175 390 659 C390 659.66 390 660.32 390 661 C406.61925031 661.64401831 419.93215248 659.55490962 435 652 C436.11117188 651.4740625 437.22234375 650.948125 438.3671875 650.40625 C446.39879019 646.53983295 453.67088557 642.05158402 461 637 C462.26449391 636.19824653 463.53472121 635.40540683 464.8125 634.625 C467.98804829 632.67636809 471.06223462 630.59840158 474.13720703 628.49511719 C493.57172151 615.29561687 514.58692312 606.43808532 538 603 C539.18464844 602.81566406 540.36929688 602.63132812 541.58984375 602.44140625 C547.39382957 601.73930001 553.2251158 601.85150952 559.0625 601.875 C560.86134644 601.88007568 560.86134644 601.88007568 562.6965332 601.88525391 C586.27333307 602.0224489 586.27333307 602.0224489 596 605 C596 605.66 596 606.32 596 607 C596.99580078 606.94779297 596.99580078 606.94779297 598.01171875 606.89453125 C599.33623047 606.85392578 599.33623047 606.85392578 600.6875 606.8125 C601.55761719 606.77769531 602.42773438 606.74289062 603.32421875 606.70703125 C606.57392549 607.06283856 608.24058516 608.27433609 611 610 C613.3783881 610.84262893 615.77659515 611.6304926 618.1875 612.375 C624.46504604 614.37889476 630.19256558 616.86744343 636 620 C637.53913938 620.77586732 639.08064755 621.54706179 640.625 622.3125 C641.73875 622.869375 642.8525 623.42625 644 624 C644 624.66 644 625.32 644 626 C644.71800781 626.26683594 645.43601562 626.53367187 646.17578125 626.80859375 C654.37740525 630.26847663 661.19741998 635.76366116 667.64453125 641.80078125 C669.83167936 643.84284491 672.08145707 645.76702875 674.375 647.6875 C677.58512507 650.47303939 679.72582042 653.39268066 682 657 C682.763125 657.7528125 683.52625 658.505625 684.3125 659.28125 C687.12339513 662.12482996 689.50172747 665.12681685 691.8125 668.375 C692.24119385 668.97642822 692.6698877 669.57785645 693.11157227 670.19750977 C699.17639765 678.9043928 703.84453074 688.25353574 708 698 C717.07975668 717.57896878 729.17415408 743.60273227 749 754 C749.93585937 754.49757813 750.87171875 754.99515625 751.8359375 755.5078125 C754.20441552 756.72190627 756.58390962 757.88448593 759 759 C759 759.33 759 759.66 759 760 C508.53 760 258.06 760 0 760 C0 509.2 0 258.4 0 0 Z " fill="currentColor" transform="translate(0,776)"/>
<path d="M0 0 C11.71682156 5.97496057 20.11317665 14.61033375 25.15161133 26.84179688 C26.25270908 30.83327623 26.81206267 34.71946392 27.15161133 38.84179688 C27.27536133 40.32873047 27.27536133 40.32873047 27.40161133 41.84570312 C27.9394974 54.73815989 22.66242623 66.71180025 14.65942383 76.70507812 C13.33911133 78.09179688 13.33911133 78.09179688 11.15161133 79.84179688 C10.49161133 79.84179688 9.83161133 79.84179688 9.15161133 79.84179688 C8.88616925 80.43227845 8.62072718 81.02276003 8.3472414 81.63113499 C7.11612127 83.90741626 5.84868568 85.39125228 4.02153015 87.21238708 C3.37811676 87.8585498 2.73470337 88.50471252 2.0717926 89.17045593 C1.36683151 89.86822647 0.66187042 90.56599701 -0.06445312 91.28491211 C-0.80773865 92.02848969 -1.55102417 92.77206726 -2.3168335 93.53817749 C-4.77706839 95.99701834 -7.24431643 98.44869479 -9.71166992 100.90039062 C-11.42362854 102.60861753 -13.13514494 104.31728771 -14.84623718 106.02638245 C-19.35594134 110.52844733 -23.87161443 115.02447891 -28.3885498 119.51928711 C-32.97444652 124.08478949 -37.55475166 128.65589364 -42.13549805 133.2265625 C-49.54055744 140.61403339 -56.94906892 147.99802119 -64.36198425 155.37760925 C-67.86151916 158.86162768 -71.35804695 162.3485628 -74.84838867 165.84179688 C-133.84838867 224.84179687 -133.84838867 224.84179687 -136.13736534 227.12909126 C-139.1061918 230.09975998 -142.06976664 233.0755973 -145.03225708 236.05258179 C-146.28950201 237.31569202 -147.54676082 238.57878844 -148.80403137 239.84187317 C-149.47105387 240.51199747 -150.13807636 241.18212177 -150.82531166 241.87255287 C-166.1972598 257.31529799 -181.58067518 272.74657665 -196.97067451 288.17133141 C-205.86375609 297.08503849 -214.75304028 306.00247225 -223.63354492 314.92871094 C-231.39178164 322.72688119 -239.15708178 330.51793678 -246.93085659 338.30061877 C-251.04042851 342.41539057 -255.14644474 346.53357096 -259.24399185 350.66032028 C-263.10125703 354.54485584 -266.96793855 358.41976817 -270.841856 362.28769493 C-272.2565887 363.7035223 -273.66793294 365.12274551 -275.07548332 366.54571342 C-286.94576727 378.53954437 -299.13494722 389.70001707 -316.93530273 390.21020508 C-323.3904585 390.23046184 -329.69759156 389.93210683 -335.84838867 387.84179688 C-336.57026367 387.596875 -337.29213867 387.35195313 -338.03588867 387.09960938 C-349.8607773 382.45998293 -358.64702348 372.33492362 -367.43896484 363.51000977 C-368.67003423 362.28165631 -369.90152739 361.05372744 -371.13340759 359.82618713 C-374.45189282 356.51675559 -377.76409753 353.20110637 -381.07487273 349.88396382 C-384.55458136 346.39915977 -388.03920346 342.91927423 -391.52302551 339.43858337 C-397.36937302 333.59586475 -403.21151316 327.74896411 -409.05126953 321.8996582 C-415.78676253 315.15327766 -422.52943662 308.41413871 -429.27587527 301.67870528 C-435.08705453 295.87662356 -440.89430031 290.07062649 -446.69832021 284.261383 C-450.15656848 280.80002924 -453.61612394 277.34001106 -457.07924461 273.88353157 C-460.33504224 270.63354296 -463.58584806 267.37864001 -466.83298683 264.12000084 C-468.01999962 262.93036062 -469.20868583 261.74238723 -470.39923096 260.55628204 C-483.24935363 247.74964394 -495.79217019 234.47453689 -496.09838867 215.21679688 C-496.03516801 213.75745329 -495.9513624 212.2988751 -495.84838867 210.84179688 C-495.81745117 210.0296875 -495.78651367 209.21757813 -495.75463867 208.38085938 C-494.9727342 195.67491164 -487.79882694 185.04719132 -478.47338867 176.65429688 C-475.16688984 173.84179688 -475.16688984 173.84179688 -472.84838867 173.84179688 C-472.84838867 173.18179688 -472.84838867 172.52179688 -472.84838867 171.84179688 C-464.64611061 167.43366279 -457.3517057 166.32660744 -448.16088867 166.27929688 C-447.19981201 166.26511719 -446.23873535 166.2509375 -445.24853516 166.23632812 C-427.1755042 166.48409481 -413.29432546 178.70880645 -401.24682617 190.95507812 C-399.94725015 192.29222359 -398.64777167 193.62946385 -397.34838867 194.96679688 C-396.01878611 196.31296263 -394.68806123 197.65802084 -393.35620117 199.00195312 C-388.10592918 204.32440532 -382.9274285 209.6344753 -378.12409973 215.36877441 C-376.56369654 217.17052171 -374.87448746 218.7026567 -373.03588867 220.21679688 C-367.19331975 225.19917878 -361.68417735 230.54637208 -356.78588867 236.46679688 C-354.84119658 238.79585577 -352.83683255 240.77089217 -350.50854492 242.71289062 C-344.13091545 248.22757423 -338.28489292 254.29983321 -332.34838867 260.27929688 C-331.13247754 261.50023378 -329.91633351 262.7209388 -328.69995117 263.94140625 C-325.74673902 266.90553701 -322.79669469 269.87278646 -319.84838867 272.84179688 C-315.95986318 269.67671798 -312.35496303 266.43508713 -308.84838867 262.84179688 C-307.83020556 261.82091927 -306.81058524 260.80147375 -305.78979492 259.78320312 C-305.24572998 259.23913818 -304.70166504 258.69507324 -304.14111328 258.13452148 C-245.11645508 199.10986328 -186.09179688 140.08520508 -91.81518555 45.80859375 C-91.05657478 45.04984703 -91.05657478 45.04984703 -90.28263855 44.27577209 C-88.9833501 42.97673246 -87.68313485 41.67861995 -86.3828125 40.38061523 C-83.88571456 37.87918749 -81.39838456 35.36842204 -78.91313171 32.85523987 C-76.31024784 30.22537682 -73.70186144 27.60099871 -71.09326172 24.97680664 C-69.72523953 23.59871949 -68.35901677 22.21884365 -66.99462891 20.8371582 C-65.00668729 18.82474813 -63.01217016 16.81905365 -61.01635742 14.81445312 C-60.4171196 14.20489273 -59.81788177 13.59533234 -59.20048523 12.96730042 C-53.49986714 7.26520745 -47.50368392 2.22367567 -40.03588867 -0.97070312 C-38.6649707 -1.56818359 -38.6649707 -1.56818359 -37.26635742 -2.17773438 C-25.43747555 -6.97425998 -11.30755949 -5.37423295 0 0 Z " fill="currentColor" transform="translate(998.848388671875,573.158203125)"/>
<path d="M0 0 C1.07252929 4.05845085 1.67152319 7.33373084 0.05859375 11.3359375 C-5.43746059 25.16733624 -3.18147443 41.70014697 -2.22851562 56.1862793 C1.13165473 107.3025179 1.13165473 107.3025179 -6 118 C-6.51374167 120.19610452 -6.96431684 122.40731091 -7.375 124.625 C-8.58824086 130.57478219 -10.31170343 135.59075549 -13 141 C-13.474375 142.155 -13.94875 143.31 -14.4375 144.5 C-16.00988898 148.02215131 -17.78087371 151.32862833 -19.68359375 154.6796875 C-20.54468743 156.19746094 -21.39170044 157.72333181 -22.22265625 159.2578125 C-30.4768781 174.4922927 -30.4768781 174.4922927 -35 176 C-34.34 174.35 -33.68 172.7 -33 171 C-32.34 171 -31.68 171 -31 171 C-30.938125 170.34 -30.87625 169.68 -30.8125 169 C-29.8610378 165.48690879 -28.25644073 163.02704859 -26.27734375 160.00390625 C-24.63935315 157.43421457 -23.30641985 154.75035758 -22 152 C-21.34 152 -20.68 152 -20 152 C-19.566875 150.4221875 -19.566875 150.4221875 -19.125 148.8125 C-18.22129406 145.74994097 -17.20961918 142.94384023 -16 140 C-15.37931641 138.47632813 -15.37931641 138.47632813 -14.74609375 136.921875 C-14.09833984 135.35179687 -14.09833984 135.35179687 -13.4375 133.75 C-12.78587891 132.16445313 -12.78587891 132.16445313 -12.12109375 130.546875 C-11 128 -11 128 -10 127 C-9.64979331 125.29899609 -9.34497947 123.58855314 -9.0625 121.875 C-8.30007006 117.47680338 -7.26026214 113.28489128 -6 109 C-4.72315341 103.23155122 -4.8527705 97.50099853 -4.875 91.625 C-4.87113281 90.64144531 -4.86726563 89.65789062 -4.86328125 88.64453125 C-4.87067279 82.88652118 -5.09739328 77.1855742 -5.5 71.44140625 C-6.09046524 62.904166 -6.1521121 54.38736271 -6.13037109 45.83227539 C-6.1249239 43.27679741 -6.13040114 40.72148891 -6.13671875 38.16601562 C-6.13605924 36.52343712 -6.13478074 34.88085871 -6.1328125 33.23828125 C-6.13483673 32.48307693 -6.13686096 31.72787262 -6.13894653 30.94978333 C-6.12215878 27.17503396 -5.90901142 23.66989664 -5 20 C-4.34 20 -3.68 20 -3 20 C-3.061875 18.741875 -3.12375 17.48375 -3.1875 16.1875 C-3.21469658 10.49434896 -1.69405347 5.3947536 0 0 Z " fill="currentColor" transform="translate(367,125)"/>
<path d="M0 0 C-2.93477482 4.28928628 -4.91009607 5.9093063 -10 7 C-11.9987565 7.16198713 -13.99899034 7.30624565 -16 7.4375 C-20.73495198 7.75355365 -23.82818894 8.65971575 -28 11 C-30.5625 11.125 -30.5625 11.125 -33 11 C-35.4303638 11.4378672 -37.82561679 11.95808684 -40.2265625 12.53515625 C-46.4337536 13.89992954 -52.48174421 14.21541565 -58.8125 14.25 C-59.62477051 14.259104 -60.43704102 14.26820801 -61.27392578 14.27758789 C-65.95805473 14.25395016 -69.56118057 13.62199538 -74 12 C-83.43553256 10.61087993 -93.16804269 10.87857418 -102.6875 10.82476807 C-104.06056752 10.81660085 -105.43362078 10.80550068 -106.80664062 10.79144287 C-108.76165058 10.77355736 -110.716784 10.77126977 -112.671875 10.76953125 C-113.8175293 10.76542236 -114.96318359 10.76131348 -116.14355469 10.75708008 C-119.20121638 10.78588883 -119.20121638 10.78588883 -122 13 C-124.12109375 13.265625 -124.12109375 13.265625 -126.4375 13.25 C-127.19933594 13.25515625 -127.96117187 13.2603125 -128.74609375 13.265625 C-131.21443018 12.9747292 -132.857686 12.22975656 -135 11 C-130.91284063 9.63761354 -126.89917828 9.56876976 -122.6171875 9.28125 C-120.07586139 9.28503015 -120.07586139 9.28503015 -119 8 C-116.88473972 7.89941791 -114.76608687 7.86918125 -112.6484375 7.8671875 C-111.99735016 7.86623077 -111.34626282 7.86527405 -110.67544556 7.86428833 C-109.28493148 7.86360538 -107.89441427 7.86546763 -106.50390625 7.86962891 C-104.43221265 7.87485566 -102.36074817 7.86975216 -100.2890625 7.86328125 C-77.51088175 7.85032166 -77.51088175 7.85032166 -69 10 C-57.72583219 10.76600275 -46.14876182 10.56916777 -35 8.6875 C-34.30245605 8.56987305 -33.60491211 8.45224609 -32.88623047 8.33105469 C-28.73823807 7.54355043 -24.93319972 6.31741939 -21.02197266 4.7824707 C-17.62208954 3.46677094 -14.1594701 2.35814532 -10.6875 1.25 C-9.98560547 1.01667969 -9.28371094 0.78335937 -8.56054688 0.54296875 C-3.34907134 -1.11635711 -3.34907134 -1.11635711 0 0 Z " fill="currentColor" transform="translate(267,353)"/>
<path d="M0 0 C0.99 0.495 0.99 0.495 2 1 C1.00766026 2.19390875 0.00551846 3.37966913 -1 4.5625 C-1.556875 5.22378906 -2.11375 5.88507812 -2.6875 6.56640625 C-4.56510286 8.54232953 -6.4310474 10.26575707 -8.49609375 12.03125 C-13.73323831 16.55236449 -18.59369622 21.44372691 -23.47290039 26.3425293 C-25.05959946 27.93458966 -26.65157742 29.5212299 -28.24414062 31.10742188 C-33.19194796 36.05218992 -38.03913909 41.03891724 -42.58911133 46.35766602 C-44.41771686 48.48624006 -46.3384834 50.50620367 -48.3125 52.5 C-49.29669922 53.50546875 -49.29669922 53.50546875 -50.30078125 54.53125 C-52 56 -52 56 -54 56 C-54 61.28 -54 66.56 -54 72 C-57.7434375 72.0309375 -57.7434375 72.0309375 -61.5625 72.0625 C-66.90486166 72.25174336 -70.59871061 72.53954878 -74.5 76.5625 C-75.9912272 78.39123123 -75.9912272 78.39123123 -77 80 C-77.66 79.67 -78.32 79.34 -79 79 C-52.66666667 52.66666667 -26.33333333 26.33333333 0 0 Z " fill="currentColor" transform="translate(870,792)"/>
<path d="M0 0 C7.39168636 -0.55553384 12.48187699 0.52535855 19 4 C20.01126953 4.433125 20.01126953 4.433125 21.04296875 4.875 C27.78524226 8.75079794 34.16638743 19.4381238 36.3125 26.875 C37.28718569 31.58291581 37.22008864 36.21674018 37 41 C36.98195313 41.75796875 36.96390625 42.5159375 36.9453125 43.296875 C36.23656991 55.72071576 31.95572615 67.46229949 24 77 C23.505 76.01 23.505 76.01 23 75 C23.7421875 73.1953125 23.7421875 73.1953125 24.875 71.125 C26.02625297 69.00766062 26.94838887 67.21676675 27.5078125 64.8671875 C28 63 28 63 30 61 C30.45811675 59.02764667 30.45811675 59.02764667 30.625 56.875 C30.74875 55.59625 30.8725 54.3175 31 53 C31.66 53 32.32 53 33 53 C35.388208 34.88566881 35.388208 34.88566881 30 18 C27.52719131 15.37080815 24.86532898 13.1831078 22 11 C21.34 10.34 20.68 9.68 20 9 C13.5696738 5.66942079 6.90257707 3.14998302 0 1 C0 0.67 0 0.34 0 0 Z " fill="currentColor" transform="translate(1401,365)"/>
<path d="M0 0 C0 0.99 0 1.98 0 3 C-0.969375 3.721875 -1.93875 4.44375 -2.9375 5.1875 C-6.13244983 8.11181879 -6.47250424 10.89666868 -6.77954102 15.13793945 C-6.91993549 18.42805341 -6.99217725 21.70662222 -7 25 C-7.98097656 24.89816406 -8.96195313 24.79632812 -9.97265625 24.69140625 C-16.90056499 24.34656648 -21.99182231 24.70715922 -27.40234375 29.40625 C-31.1658676 33.06414343 -34.66063912 36.95283981 -38 41 C-38.66 40.67 -39.32 40.34 -40 40 C-26.8 26.8 -13.6 13.6 0 0 Z " fill="currentColor" transform="translate(919,743)"/>
<path d="M0 0 C2 2 2 2 2.24291992 4.66699219 C2.23881104 5.78235352 2.23470215 6.89771484 2.23046875 8.046875 C2.22853516 9.28566406 2.22660156 10.52445313 2.22460938 11.80078125 C2.21236328 13.10402344 2.20011719 14.40726563 2.1875 15.75 C2.18685547 17.00683594 2.18621094 18.26367188 2.18554688 19.55859375 C2.15703346 25.72382752 1.98221193 31.83346241 1.5 37.98046875 C0.91239455 45.50966034 0.8043102 53.01332713 0.8125 60.5625 C0.8117749 61.25134277 0.8110498 61.94018555 0.81030273 62.64990234 C0.81167501 74.52006287 1.51418621 86.21961924 3 98 C-2.77506507 92.22493493 -2.2617613 79.22489437 -2.29296875 71.44140625 C-2.28414604 68.14782657 -2.23867888 64.8556519 -2.1875 61.5625 C-2.17240495 59.84831923 -2.15872519 58.1341254 -2.14648438 56.41992188 C-2.11390849 52.27961639 -2.06240179 48.13995891 -2 44 C-1.34 44 -0.68 44 0 44 C0 29.48 0 14.96 0 0 Z " fill="currentColor" transform="translate(363,1310)"/>
<path d="M0 0 C2 2 2 2 3.0234375 4.23413086 C3 7 3 7 0.4765625 9.89282227 C-0.79491123 11.02721443 -2.08015878 12.14626134 -3.375 13.25390625 C-4.86461225 14.58823053 -6.35000195 15.92727789 -7.83203125 17.27001953 C-8.65654785 18.0153595 -9.48106445 18.76069946 -10.33056641 19.52862549 C-15.37763532 24.20122626 -20.20925078 29.09283702 -25.0625 33.96484375 C-26.12398971 35.02783509 -27.18559511 36.09071092 -28.24731445 37.1534729 C-30.95023308 39.86048855 -33.65024101 42.57038956 -36.34960938 45.28094482 C-39.13742049 48.07916899 -41.92822944 50.87440016 -44.71875 53.66992188 C-50.14868894 59.11043846 -55.57542446 64.55413514 -61 70 C-61.66 69.67 -62.32 69.34 -63 69 C-15 21 -15 21 -12.3087616 18.34318542 C-7.13231818 13.0895608 -3.00889674 6.72576918 0 0 Z " fill="currentColor" transform="translate(1022,634)"/>
<path d="M0 0 C0.495 0.99 0.495 0.99 1 2 C0.01 2.33 -0.98 2.66 -2 3 C-2 2.34 -2 1.68 -2 1 C-2.99 1.33 -3.98 1.66 -5 2 C-6.33333333 1.33333333 -7.66666667 0.66666667 -9 0 C-10.66621616 -0.03874921 -12.33394172 -0.0450286 -14 0 C-14.495 -0.495 -14.495 -0.495 -15 -1 C-20.12262431 -1.30735746 -24.14339235 -0.59095768 -29 1 C-30.15628906 1.309375 -30.15628906 1.309375 -31.3359375 1.625 C-36.35495513 3.02908333 -36.35495513 3.02908333 -40.0625 6.5625 C-41.11965969 8.87585307 -41.11965969 8.87585307 -41 11 C-42.65 11.33 -44.3 11.66 -46 12 C-46.33 14.31 -46.66 16.62 -47 19 C-48.98 19 -50.96 19 -53 19 C-53.33 20.32 -53.66 21.64 -54 23 C-54.67578125 21.328125 -54.67578125 21.328125 -55 19 C-53.85546875 16.421875 -53.85546875 16.421875 -52.1875 13.75 C-51.37345703 12.41195312 -51.37345703 12.41195312 -50.54296875 11.046875 C-50.03378906 10.37140625 -49.52460938 9.6959375 -49 9 C-48.34 9 -47.68 9 -47 9 C-47 8.34 -47 7.68 -47 7 C-45.35 6.34 -43.7 5.68 -42 5 C-42 4.34 -42 3.68 -42 3 C-40.44148245 2.17988688 -38.87798284 1.36923787 -37.3125 0.5625 C-36.44238281 0.11003906 -35.57226562 -0.34242187 -34.67578125 -0.80859375 C-24.13131301 -5.50357596 -10.64077588 -3.35215194 0 0 Z " fill="currentColor" transform="translate(423,101)"/>
<path d="M0 0 C0.99 0.495 0.99 0.495 2 1 C-3.03700175 7.07914005 -10.44478658 10.82507757 -18.3125 11.6875 C-19.529375 11.790625 -20.74625 11.89375 -22 12 C-22.99 12.33 -23.98 12.66 -25 13 C-32.7122151 15.57073837 -40.90211321 15.15756603 -48.9375 15.125 C-50.72208618 15.11992432 -50.72208618 15.11992432 -52.54272461 15.11474609 C-79.03954509 14.96045491 -79.03954509 14.96045491 -82 12 C-81.08001221 12.0407666 -80.16002441 12.0815332 -79.2121582 12.12353516 C-61.63971517 12.86719138 -44.48063863 13.40348527 -27 11 C-25.48201712 10.80793911 -23.96379549 10.61775345 -22.4453125 10.4296875 C-21.30835938 10.28789063 -20.17140625 10.14609375 -19 10 C-19 9.34 -19 8.68 -19 8 C-18.46503906 7.88527344 -17.93007812 7.77054688 -17.37890625 7.65234375 C-14.45175319 6.84965974 -11.73808087 5.73201147 -8.9375 4.5625 C-7.89464844 4.13066406 -6.85179687 3.69882813 -5.77734375 3.25390625 C-2.87488826 2.03445027 -2.87488826 2.03445027 0 0 Z " fill="currentColor" transform="translate(1424,1160)"/>
<path d="M0 0 C0.33 0 0.66 0 1 0 C4.80345724 17.98867829 5.95822693 35.66882011 4 54 C3.9278125 54.80695312 3.855625 55.61390625 3.78125 56.4453125 C3.05653659 64.08068588 0.74866148 70.878468 -2 78 C-3.05935281 74.82194157 -2.97128051 74.04442848 -2.1875 70.9375 C-0.14682227 62.54007925 1.3038994 54.71549956 1.23046875 46.046875 C1.23001053 45.14302063 1.22955231 44.23916626 1.2290802 43.30792236 C1.22608381 41.41555451 1.21827712 39.52318854 1.20581055 37.63085938 C1.18745805 34.74340035 1.185302 31.85626154 1.18554688 28.96875 C1.18063379 27.11978891 1.17480639 25.27082997 1.16796875 23.421875 C1.16685593 22.56551453 1.1657431 21.70915405 1.16459656 20.82684326 C1.12993038 16.43564775 0.83872227 12.32747639 0 8 C-0.11196073 5.32189925 -0.04625299 2.68267314 0 0 Z " fill="currentColor" transform="translate(155,527)"/>
<path d="M0 0 C0.66 0.33 1.32 0.66 2 1 C1.00766026 2.19390875 0.00551846 3.37966913 -1 4.5625 C-1.556875 5.22378906 -2.11375 5.88507812 -2.6875 6.56640625 C-4.56510286 8.54232953 -6.4310474 10.26575707 -8.49609375 12.03125 C-13.73323831 16.55236449 -18.59369622 21.44372691 -23.47290039 26.3425293 C-25.05959946 27.93458966 -26.65157742 29.5212299 -28.24414062 31.10742188 C-33.19868939 36.05897565 -38.05070726 41.05341785 -42.60668945 46.37963867 C-47.24272605 51.77115346 -52.45568495 56.56454796 -58 61 C-58.66 60.67 -59.32 60.34 -60 60 C-40 40 -20 20 0 0 Z " fill="currentColor" transform="translate(870,792)"/>
<path d="M0 0 C0.94875 0.00902344 1.8975 0.01804688 2.875 0.02734375 C3.57625 0.03894531 4.2775 0.05054688 5 0.0625 C5 1.3825 5 2.7025 5 4.0625 C-10.18 4.0625 -25.36 4.0625 -41 4.0625 C-41.33 3.4025 -41.66 2.7425 -42 2.0625 C-41.19369141 2.03744385 -40.38738281 2.0123877 -39.55664062 1.98657227 C-35.87096125 1.8698732 -32.18549148 1.74748409 -28.5 1.625 C-27.2315625 1.58568359 -25.963125 1.54636719 -24.65625 1.50585938 C-16.42983155 1.22736083 -8.20562491 -0.10257031 0 0 Z " fill="currentColor" transform="translate(1003,155.9375)"/>
<path d="M0 0 C-2.62659089 2.62659089 -4.33775117 2.53455222 -7.99609375 3.03515625 C-9.19427734 3.20466797 -10.39246094 3.37417969 -11.62695312 3.54882812 C-12.88443359 3.71833984 -14.14191406 3.88785156 -15.4375 4.0625 C-17.91568527 4.4052413 -20.39356654 4.75019005 -22.87109375 5.09765625 C-23.97380615 5.24726807 -25.07651855 5.39687988 -26.21264648 5.55102539 C-29.07393933 5.93501397 -29.07393933 5.93501397 -32 7 C-35.60015766 7.23090372 -39.20570681 7.18516852 -42.8125 7.1875 C-43.79798828 7.19974609 -44.78347656 7.21199219 -45.79882812 7.22460938 C-50.93312322 7.23495382 -55.19812414 7.06260542 -60 5 C-60 4.67 -60 4.34 -60 4 C-59.06317383 3.97494385 -58.12634766 3.9498877 -57.16113281 3.92407227 C-53.62735789 3.82794626 -50.0936934 3.72878614 -46.56005859 3.62768555 C-45.04153683 3.58483569 -43.52298213 3.54313499 -42.00439453 3.50268555 C-26.1934837 3.43733665 -26.1934837 3.43733665 -10.6875 0.9375 C-6.84658726 -0.03900324 -3.92232553 -0.16343023 0 0 Z " fill="currentColor" transform="translate(602,153)"/>
<path d="M0 0 C1.07296475 4.06009862 1.6705781 7.33485271 0.05810547 11.33886719 C-4.11466661 21.83337934 -3.24143025 33.66496146 -3.125 44.75 C-3.11494397 46.42968213 -3.10582278 48.10937012 -3.09765625 49.7890625 C-3.07586468 53.85952282 -3.04148163 57.92969468 -3 62 C-3.66 61.67 -4.32 61.34 -5 61 C-5 47.47 -5 33.94 -5 20 C-4.34 20 -3.68 20 -3 20 C-3.0928125 18.1128125 -3.0928125 18.1128125 -3.1875 16.1875 C-3.21469658 10.49434896 -1.69405347 5.3947536 0 0 Z " fill="currentColor" transform="translate(367,125)"/>
<path d="M0 0 C0 4.62 0 9.24 0 14 C-4.62 14 -9.24 14 -14 14 C-2.28571429 0 -2.28571429 0 0 0 Z " fill="currentColor" transform="translate(832,834)"/>
<path d="M0 0 C4.33574025 2.96655912 5.40385241 5.10514738 7 10 C8.3153341 10.70151152 9.65117592 11.36525925 11 12 C13.25 15.125 13.25 15.125 15 18 C10.38 18 5.76 18 1 18 C1 15.36 1 12.72 1 10 C2.32 9.67 3.64 9.34 5 9 C4.6390625 8.51789062 4.278125 8.03578125 3.90625 7.5390625 C3.4421875 6.90742187 2.978125 6.27578125 2.5 5.625 C2.0359375 4.99851562 1.571875 4.37203125 1.09375 3.7265625 C0 2 0 2 0 0 Z " fill="currentColor" transform="translate(1407,654)"/>
<path d="M0 0 C2.64 0 5.28 0 8 0 C8 5.28 8 10.56 8 16 C1.25 10.375 1.25 10.375 -1 7 C-0.625 3.3125 -0.625 3.3125 0 0 Z " fill="currentColor" transform="translate(584,880)"/>
<path d="M0 0 C0 3.53735219 -0.50494151 3.82985943 -2.75 6.375 C-7.35165336 12.24644922 -8.8201443 19.22514773 -10.58203125 26.35546875 C-11.0625 28.25 -11.0625 28.25 -12 31 C-12.99 31.33 -13.98 31.66 -15 32 C-15.65314282 21.98514345 -12.17714763 13.77698443 -6 6 C-4.07545245 3.8834341 -2.0993261 1.94937423 0 0 Z " fill="currentColor" transform="translate(15,737)"/>
<path d="M0 0 C2.64 0 5.28 0 8 0 C8 4.95 8 9.9 8 15 C2.24 12.12 2.24 12.12 0 9 C-0.33485805 5.97058107 -0.23342706 3.03455174 0 0 Z " fill="currentColor" transform="translate(616,776)"/>
<path d="M0 0 C8.06402123 -0.60860538 15.25159241 1.50106161 22 6 C22 7.32 22 8.64 22 10 C18.72325572 8.93505811 15.55166996 7.81061921 12.375 6.46875 C7.76215815 4.73149424 3.39163633 4.4519196 -1.5 4.3125 C-2.32242188 4.27833984 -3.14484375 4.24417969 -3.9921875 4.20898438 C-5.9943455 4.1275012 -7.99714568 4.06205425 -10 4 C-10 3.67 -10 3.34 -10 3 C-6.7 2.67 -3.4 2.34 0 2 C0 1.34 0 0.68 0 0 Z " fill="currentColor" transform="translate(554,736)"/>
<path d="M0 0 C0.33 0 0.66 0 1 0 C1.02505615 1.08531006 1.0501123 2.17062012 1.07592773 3.28881836 C1.16983755 7.301316 1.27009767 11.31363382 1.37231445 15.32592773 C1.41572573 17.06514288 1.45739612 18.80440235 1.49731445 20.54370117 C1.55486768 23.03838488 1.6186042 25.5328441 1.68359375 28.02734375 C1.70030624 28.80963852 1.71701874 29.59193329 1.73423767 30.39793396 C1.50648731 33.99871781 1.50648731 33.99871781 3 37 C3.08861992 39.8116338 3.11522355 42.59858255 3.09765625 45.41015625 C3.09553383 46.67320839 3.09553383 46.67320839 3.09336853 47.96177673 C3.08775263 50.66205335 3.07519748 53.36224828 3.0625 56.0625 C3.05748705 57.88867068 3.05292379 59.71484266 3.04882812 61.54101562 C3.03777804 66.02737542 3.02050279 70.51367384 3 75 C2.67 75 2.34 75 2 75 C0.35494364 49.96976751 -0.27439539 25.08184919 0 0 Z " fill="currentColor" transform="translate(361,150)"/>
<path d="M0 0 C0.495 0.99 0.495 0.99 1 2 C-2.16346012 10.30408281 -8.17034312 16.15635026 -16 20 C-16.886875 20.52464844 -17.77375 21.04929687 -18.6875 21.58984375 C-22.80041819 23.34074407 -26.03017571 23.37469883 -30.4375 23.25 C-31.16259766 23.24484375 -31.88769531 23.2396875 -32.63476562 23.234375 C-37.15051674 23.16945854 -41.56056063 22.89361618 -46 22 C-46.33 21.34 -46.66 20.68 -47 20 C-46.32195312 20.0721875 -45.64390625 20.144375 -44.9453125 20.21875 C-41.96553797 20.51590203 -38.98559179 20.76858818 -36 21 C-35.14019531 21.06832031 -34.28039063 21.13664062 -33.39453125 21.20703125 C-23.47482228 21.63283752 -15.10148719 17.53465528 -7.75 11 C-6.06415688 9.07332215 -5.00431612 7.34340427 -4 5 C-3.34 5 -2.68 5 -2 5 C-1.34 3.35 -0.68 1.7 0 0 Z " fill="currentColor" transform="translate(1166,1415)"/>
<path d="M0 0 C0.66 0.33 1.32 0.66 2 1 C1.67 1.99 1.34 2.98 1 4 C1.33 4.99 1.66 5.98 2 7 C1.27683594 7.56267578 1.27683594 7.56267578 0.5390625 8.13671875 C-3.31842782 11.26207315 -5.20630744 13.33639934 -7 18 C-8.88924283 19.86364333 -10.88042864 21.38728266 -13 23 C-13.7109375 21.3203125 -13.7109375 21.3203125 -14 19 C-12.6015625 16.4921875 -12.6015625 16.4921875 -10.625 13.875 C-8.10022851 10.56793748 -8.10022851 10.56793748 -6 7 C-5.34 7 -4.68 7 -4 7 C-4 6.34 -4 5.68 -4 5 C-3.34 5 -2.68 5 -2 5 C-1.34 3.35 -0.68 1.7 0 0 Z " fill="currentColor" transform="translate(734,17)"/>
<path d="M0 0 C0 2.31 0 4.62 0 7 C-7.92 7.495 -7.92 7.495 -16 8 C-16 7.01 -16 6.02 -16 5 C-14.08717875 4.15787744 -12.16957527 3.32661136 -10.25 2.5 C-9.18265625 2.0359375 -8.1153125 1.571875 -7.015625 1.09375 C-4 0 -4 0 0 0 Z " fill="currentColor" transform="translate(1040,145)"/>
<path d="M0 0 C5.28 0 10.56 0 16 0 C12.64309635 2.23793576 9.1660716 3.65050338 5.4375 5.125 C4.75236328 5.40214844 4.06722656 5.67929688 3.36132812 5.96484375 C-1.7466133 8 -1.7466133 8 -4 8 C-3.625 6.0625 -3.625 6.0625 -3 4 C-2.34 3.67 -1.68 3.34 -1 3 C-0.67 2.01 -0.34 1.02 0 0 Z " fill="currentColor" transform="translate(1276,1176)"/>
<path d="M0 0 C6.27 0 12.54 0 19 0 C15.67409848 1.66295076 12.36827182 3.13832582 8.9375 4.5625 C7.89464844 4.99691406 6.85179687 5.43132813 5.77734375 5.87890625 C3.87501048 6.64679605 1.94619474 7.35126842 0 8 C0 5.36 0 2.72 0 0 Z " fill="currentColor" transform="translate(952,568)"/>
<path d="M0 0 C0.66 0.33 1.32 0.66 2 1 C1.360625 1.474375 0.72125 1.94875 0.0625 2.4375 C-2.94747955 6.17717156 -2.72077038 9.25309642 -3 14 C-6.3 14.33 -9.6 14.66 -13 15 C-9.54122788 9.13512553 -4.88678132 4.69882819 0 0 Z " fill="currentColor" transform="translate(867,1418)"/>
<path d="M0 0 C1.13792401 3.41377202 0.52200234 4.56115577 -0.51074219 7.85986328 C-1.49193428 12.15184426 -1.2028138 16.55897707 -1.125 20.9375 C-1.11146484 22.3925293 -1.11146484 22.3925293 -1.09765625 23.87695312 C-1.07426107 26.25156407 -1.04148176 28.62564776 -1 31 C-3 30 -3 30 -4 27 C-4.27809512 23.75491764 -4.27741701 20.5057012 -4.3125 17.25 C-4.34150391 16.36828125 -4.37050781 15.4865625 -4.40039062 14.578125 C-4.45921771 8.49630991 -3.4714654 5.01205655 0 0 Z " fill="currentColor" transform="translate(102,385)"/>
<path d="M0 0 C0.99 0.33 1.98 0.66 3 1 C-0.9419417 5.88049925 -5.11950075 10.0580583 -10 14 C-10 11 -10 11 -8.3203125 9.0625 C-7.59585938 8.381875 -6.87140625 7.70125 -6.125 7 C-3.69915419 4.704576 -1.86499904 2.79749856 0 0 Z M-15 15 C-14.01 15.33 -13.02 15.66 -12 16 C-16.30769231 21.78461538 -16.30769231 21.78461538 -19.8125 22.875 C-20.8953125 22.936875 -20.8953125 22.936875 -22 23 C-21.67 22.34 -21.34 21.68 -21 21 C-20.34 21 -19.68 21 -19 21 C-19 20.34 -19 19.68 -19 19 C-17.70766393 17.62689293 -16.37562854 16.28965176 -15 15 Z " fill="currentColor" transform="translate(685,99)"/>
<path d="M0 0 C0.33 0.99 0.66 1.98 1 3 C-1.53741915 5.56673522 -4.08069115 8.12759557 -6.625 10.6875 C-7.33785156 11.40873047 -8.05070313 12.12996094 -8.78515625 12.87304688 C-12.70445473 16.81032379 -16.6605938 20.52984393 -21 24 C-21.66 23.67 -22.32 23.34 -23 23 C-22.50371094 22.5875 -22.00742187 22.175 -21.49609375 21.75 C-17.21753419 18.11281844 -13.43645658 14.34778709 -9.80859375 10.06640625 C-6.71840232 6.53571237 -3.35523149 3.27679751 0 0 Z " fill="currentColor" transform="translate(767,759)"/>
<path d="M0 0 C2.64 0 5.28 0 8 0 C8 0.66 8 1.32 8 2 C8.66 2.33 9.32 2.66 10 3 C8.71186658 3.83878455 7.41936744 4.67086783 6.125 5.5 C5.40570313 5.9640625 4.68640625 6.428125 3.9453125 6.90625 C2 8 2 8 0 8 C0 5.36 0 2.72 0 0 Z " fill="currentColor" transform="translate(456,1408)"/>
<path d="M0 0 C5.32914997 4.9484964 8.46523608 10.60873924 11.3125 17.25 C11.58900391 17.87390625 11.86550781 18.4978125 12.15039062 19.140625 C12.83207932 20.73409379 13.42371772 22.36545389 14 24 C13.67 24.66 13.34 25.32 13 26 C11.5 23.5 11.5 23.5 10 21 C9.505 20.21625 9.01 19.4325 8.5 18.625 C7 16 7 16 5.5625 12.625 C4.41747352 9.96853856 3.26990646 7.65585391 1.8125 5.1875 C0 2 0 2 0 0 Z " fill="currentColor" transform="translate(1417,1080)"/>
<path d="M0 0 C3.0625 1.1875 3.0625 1.1875 6.0625 3.1875 C6.0625 4.5075 6.0625 5.8275 6.0625 7.1875 C1.34025484 5.65277032 -3.29605331 3.94804874 -7.9375 2.1875 C-3.29088346 -0.91024436 -3.29088346 -0.91024436 0 0 Z " fill="currentColor" transform="translate(569.9375,738.8125)"/>
<path d="M0 0 C1.65 0 3.3 0 5 0 C5 0.99 5 1.98 5 3 C4.49210937 3.24234375 3.98421875 3.4846875 3.4609375 3.734375 C0.03866909 5.40064801 -3.24261631 7.07904101 -6.375 9.25 C-9 11 -9 11 -11 11 C-9.74874616 7.24623848 -8.4347596 6.75926711 -5 5 C-4.34 5 -3.68 5 -3 5 C-3 4.34 -3 3.68 -3 3 C-2.34 3 -1.68 3 -1 3 C-0.67 2.01 -0.34 1.02 0 0 Z " fill="currentColor" transform="translate(1451,837)"/>
<path d="M0 0 C0 3.45872551 -0.46260343 3.91213791 -2.5625 6.5 C-6.41820913 11.432363 -9.69874915 16.6867442 -13 22 C-13.33 21.34 -13.66 20.68 -14 20 C-10.99369067 11.82384492 -6.5536595 5.65544221 0 0 Z " fill="currentColor" transform="translate(15,737)"/>
<path d="M0 0 C0.66 0.33 1.32 0.66 2 1 C0.87926138 1.83905565 -0.24674547 2.67107831 -1.375 3.5 C-2.31472656 4.19609375 -2.31472656 4.19609375 -3.2734375 4.90625 C-5 6 -5 6 -7 6 C-7 7.32 -7 8.64 -7 10 C-9.64 10 -12.28 10 -15 10 C-15 9.01 -15 8.02 -15 7 C-14.33613281 6.74605469 -13.67226562 6.49210938 -12.98828125 6.23046875 C-9.15413104 4.73598976 -5.52987599 3.32013341 -2 1.1875 C-1.34 0.795625 -0.68 0.40375 0 0 Z " fill="currentColor" transform="translate(87,694)"/>
<path d="M0 0 C2.64 0.33 5.28 0.66 8 1 C7.01 1.33 6.02 1.66 5 2 C3.77030122 5.51190809 3.77030122 5.51190809 3 9 C2.01 9 1.02 9 0 9 C0 6.03 0 3.06 0 0 Z " fill="currentColor" transform="translate(1400,880)"/>
<path d="M0 0 C9.27209463 -0.41585806 18.09356386 0.1942152 27 3 C27.33 3.66 27.66 4.32 28 5 C27.01 5.33 26.02 5.66 25 6 C25 5.34 25 4.68 25 4 C24.01 4.33 23.02 4.66 22 5 C20.66666667 4.33333333 19.33333333 3.66666667 18 3 C16.33378384 2.96125079 14.66605828 2.9549714 13 3 C12.67 2.67 12.34 2.34 12 2 C9.98405418 1.76572222 7.961526 1.58663876 5.9375 1.4375 C4.83277344 1.35371094 3.72804688 1.26992187 2.58984375 1.18359375 C1.73519531 1.12300781 0.88054687 1.06242187 0 1 C0 0.67 0 0.34 0 0 Z " fill="currentColor" transform="translate(396,98)"/>
<path d="M0 0 C3.3 0 6.6 0 10 0 C6.98112756 3.48331435 4.43090471 4.79157144 0 6 C0 4.02 0 2.04 0 0 Z " fill="currentColor" transform="translate(896,1392)"/>
<path d="M0 0 C7.35844601 1.75127943 12.9427854 4.47903548 19 9 C16 10 16 10 13.4765625 8.890625 C12.53554687 8.34921875 11.59453125 7.8078125 10.625 7.25 C9.68914062 6.71890625 8.75328125 6.1878125 7.7890625 5.640625 C6.86867188 5.09921875 5.94828125 4.5578125 5 4 C4.05898437 3.45859375 3.11796875 2.9171875 2.1484375 2.359375 C1.43945312 1.91078125 0.73046875 1.4621875 0 1 C0 0.67 0 0.34 0 0 Z " fill="currentColor" transform="translate(1251,343)"/>
<path d="M0 0 C0.66 0 1.32 0 2 0 C-0.5159359 5.3180446 -3.55830525 10.7260723 -8.875 13.5 C-9.57625 13.665 -10.2775 13.83 -11 14 C-3.67924528 4.08805031 -3.67924528 4.08805031 0 0 Z " fill="currentColor" transform="translate(330,302)"/>
<path d="M0 0 C0 2.31 0 4.62 0 7 C-7.625 8 -7.625 8 -11 8 C-9.35653302 6.66375099 -7.71016314 5.33107149 -6.0625 4 C-5.14597656 3.2575 -4.22945312 2.515 -3.28515625 1.75 C-1 0 -1 0 0 0 Z " fill="currentColor" transform="translate(880,1409)"/>
<path d="M0 0 C-4.29351588 1.88914699 -8.54706093 3.51568698 -13 5 C-13.33 5.33 -13.66 5.66 -14 6 C-15.51928038 6.07179964 -17.04167482 6.08392007 -18.5625 6.0625 C-19.38878906 6.05347656 -20.21507812 6.04445313 -21.06640625 6.03515625 C-21.70449219 6.02355469 -22.34257812 6.01195312 -23 6 C-23 5.67 -23 5.34 -23 5 C-22.04738281 4.73445313 -21.09476563 4.46890625 -20.11328125 4.1953125 C-18.85902344 3.84210938 -17.60476562 3.48890625 -16.3125 3.125 C-15.07113281 2.77695312 -13.82976562 2.42890625 -12.55078125 2.0703125 C-9.08642212 1.08875188 -9.08642212 1.08875188 -6.1875 -0.15625 C-3.6558987 -1.13272479 -2.50505354 -0.92779761 0 0 Z " fill="currentColor" transform="translate(264,354)"/>
<path d="M0 0 C-2 2 -2 2 -5.0625 2.375 C-9.83926511 3.13321668 -13.68176622 4.89473863 -18 7 C-16.82195726 3.46587178 -15.3945434 2.54234878 -12.1875 0.78515625 C-8.20987569 -0.64252676 -4.16225039 -0.30149097 0 0 Z " fill="currentColor" transform="translate(401,99)"/>
<path d="M0 0 C-5.62273067 2.94523988 -11.7281887 4.98841753 -18 6 C-18 5.34 -18 4.68 -18 4 C-11.72912263 0.28392452 -7.24539726 -0.53449652 0 0 Z " fill="currentColor" transform="translate(768,1)"/>
<path d="M0 0 C7.32067428 2.59765862 13.83483511 6.16836223 19 12 C14.77753346 10.4761023 11.04973152 8.35668742 7.25 6 C6.66089844 5.64421875 6.07179688 5.2884375 5.46484375 4.921875 C1.12365033 2.24730066 1.12365033 2.24730066 0 0 Z " fill="currentColor" transform="translate(1069,1410)"/>
<path d="M0 0 C2.31 0 4.62 0 7 0 C6.67 0.66 6.34 1.32 6 2 C5.34 2 4.68 2 4 2 C4 2.66 4 3.32 4 4 C-2.625 6.875 -2.625 6.875 -6 8 C-5.67 7.01 -5.34 6.02 -5 5 C-4.34 5 -3.68 5 -3 5 C-2.67 4.01 -2.34 3.02 -2 2 C-1.34 2 -0.68 2 0 2 C0 1.34 0 0.68 0 0 Z " fill="currentColor" transform="translate(1246,1192)"/>
<path d="M0 0 C0.66 0.33 1.32 0.66 2 1 C-2.60136502 6.53601728 -7.46398272 11.39863498 -13 16 C-13.66 15.67 -14.32 15.34 -15 15 C-10.3143947 9.52331848 -5.59753384 4.54799625 0 0 Z " fill="currentColor" transform="translate(870,792)"/>
<path d="M0 0 C5.81445305 1.93815102 8.87105316 7.01686244 12 12 C11.67 12.66 11.34 13.32 11 14 C10.51789063 13.43410156 10.03578125 12.86820313 9.5390625 12.28515625 C8.59160156 11.18494141 8.59160156 11.18494141 7.625 10.0625 C6.99851562 9.33160156 6.37203125 8.60070312 5.7265625 7.84765625 C4.12252286 5.91619094 4.12252286 5.91619094 2 5 C2 4.01 2 3.02 2 2 C1.34 2 0.68 2 0 2 C0 1.34 0 0.68 0 0 Z " fill="currentColor" transform="translate(110,859)"/>
<path d="M0 0 C0.33 0.66 0.66 1.32 1 2 C0.109375 3.91015625 0.109375 3.91015625 -1.25 6.0625 C-1.90742187 7.13177734 -1.90742187 7.13177734 -2.578125 8.22265625 C-4 10 -4 10 -7 11 C-7 8.36 -7 5.72 -7 3 C-6.01 3.99 -5.02 4.98 -4 6 C-2.68 4.02 -1.36 2.04 0 0 Z " fill="currentColor" transform="translate(1199,1240)"/>
<path d="M0 0 C2.64 0 5.28 0 8 0 C8 2.31 8 4.62 8 7 C6.66382648 6.02471263 5.3311249 5.04466681 4 4.0625 C3.2575 3.51722656 2.515 2.97195313 1.75 2.41015625 C1.1725 1.94480469 0.595 1.47945312 0 1 C0 0.67 0 0.34 0 0 Z " fill="currentColor" transform="translate(296,1200)"/>
<path d="M0 0 C1 3 1 3 -0.36328125 6.3203125 C-1.00267748 7.59378775 -1.65287331 8.86188505 -2.3125 10.125 C-2.63412109 10.77082031 -2.95574219 11.41664063 -3.28710938 12.08203125 C-5.72829433 16.86414717 -5.72829433 16.86414717 -8 18 C-7.50719082 13.9343243 -6.05566079 11.14807116 -3.984375 7.7109375 C-2.74733515 5.56084442 -1.88451589 3.31334925 -1 1 C-0.67 0.67 -0.34 0.34 0 0 Z " fill="currentColor" transform="translate(146,622)"/>
<path d="M0 0 C3.94727588 -0.17942163 6.5980513 -0.09350689 10 2 C10 2.66 10 3.32 10 4 C10.99 4.33 11.98 4.66 13 5 C11 6 11 6 8.65234375 5.29296875 C7.30849609 4.74576172 7.30849609 4.74576172 5.9375 4.1875 C5.03902344 3.83042969 4.14054688 3.47335937 3.21484375 3.10546875 C1 2 1 2 0 0 Z " fill="currentColor" transform="translate(987,568)"/>
<path d="M0 0 C2.29158942 2.89818662 4.07862366 5.83140544 5.75 9.125 C6.19859375 9.99382812 6.6471875 10.86265625 7.109375 11.7578125 C7.40328125 12.49773437 7.6971875 13.23765625 8 14 C7.67 14.66 7.34 15.32 7 16 C4.24515283 12.78601163 2.43610194 9.97689767 1 6 C0.67 5.67 0.34 5.34 0 5 C-0.04063832 3.33382885 -0.042721 1.66611905 0 0 Z " fill="currentColor" transform="translate(107,433)"/>
<path d="M0 0 C-1.35541324 4.06623972 -3.57009469 5.53046818 -7 8 C-7.99 7.67 -8.98 7.34 -10 7 C-9.34 6.67 -8.68 6.34 -8 6 C-8 5.01 -8 4.02 -8 3 C-5.11165997 0.89229241 -3.61537605 0 0 0 Z " fill="currentColor" transform="translate(1056,136)"/>
<path d="M0 0 C2.64 0 5.28 0 8 0 C8 1.98 8 3.96 8 6 C4.63408134 4.55746343 2.48952921 2.66735273 0 0 Z " fill="currentColor" transform="translate(656,1408)"/>
<path d="M0 0 C1.98 0 3.96 0 6 0 C5.67 1.65 5.34 3.3 5 5 C3.35 5.33 1.7 5.66 0 6 C0 4.02 0 2.04 0 0 Z " fill="currentColor" transform="translate(1208,1224)"/>
<path d="M0 0 C1.98 0 3.96 0 6 0 C5.42655063 2.86724686 5.1385485 3.8614515 3 6 C2.01 6 1.02 6 0 6 C0 4.02 0 2.04 0 0 Z " fill="currentColor" transform="translate(1224,1208)"/>
<path d="M0 0 C2.64 0 5.28 0 8 0 C8 0.66 8 1.32 8 2 C5.09451118 4.04169485 3.59857954 5 0 5 C0 3.35 0 1.7 0 0 Z " fill="currentColor" transform="translate(1256,1184)"/>
<path d="M0 0 C0.33 0 0.66 0 1 0 C1 2.31 1 4.62 1 7 C-1.31 7 -3.62 7 -6 7 C-5.02433888 5.83040013 -4.044375 4.66438823 -3.0625 3.5 C-2.51722656 2.8503125 -1.97195313 2.200625 -1.41015625 1.53125 C-0.71212891 0.77328125 -0.71212891 0.77328125 0 0 Z " fill="currentColor" transform="translate(799,865)"/>
<path d="M0 0 C0.66 0.33 1.32 0.66 2 1 C0.625 2.5 0.625 2.5 -1 4 C-1.66 4 -2.32 4 -3 4 C-3.66 5.32 -4.32 6.64 -5 8 C-6.32 8 -7.64 8 -9 8 C-9 7.34 -9 6.68 -9 6 C-8.34 6 -7.68 6 -7 6 C-7 5.34 -7 4.68 -7 4 C-1.7265625 0.77734375 -1.7265625 0.77734375 0 0 Z " fill="currentColor" transform="translate(37,720)"/>
<path d="M0 0 C0.33 0 0.66 0 1 0 C1 2.31 1 4.62 1 7 C-1.31 7 -3.62 7 -6 7 C-5.02433888 5.83040013 -4.044375 4.66438823 -3.0625 3.5 C-2.51722656 2.8503125 -1.97195313 2.200625 -1.41015625 1.53125 C-0.71212891 0.77328125 -0.71212891 0.77328125 0 0 Z " fill="currentColor" transform="translate(967,697)"/>
<path d="M0 0 C0.33 0 0.66 0 1 0 C1 2.31 1 4.62 1 7 C-1.31 7 -3.62 7 -6 7 C-5.02433888 5.83040013 -4.044375 4.66438823 -3.0625 3.5 C-2.51722656 2.8503125 -1.97195313 2.200625 -1.41015625 1.53125 C-0.71212891 0.77328125 -0.71212891 0.77328125 0 0 Z " fill="currentColor" transform="translate(975,689)"/>
<path d="M0 0 C0.66 0.33 1.32 0.66 2 1 C0.75323147 2.27400377 -0.4975648 3.54406654 -1.75 4.8125 C-2.44609375 5.52019531 -3.1421875 6.22789062 -3.859375 6.95703125 C-5.81428645 8.82275879 -7.80338553 10.43169642 -10 12 C-10.66 11.67 -11.32 11.34 -12 11 C-8.04 7.37 -4.08 3.74 0 0 Z " fill="currentColor" transform="translate(109,676)"/>
<path d="M0 0 C0.33 0 0.66 0 1 0 C1 2.31 1 4.62 1 7 C-1.31 7 -3.62 7 -6 7 C-5.02433888 5.83040013 -4.044375 4.66438823 -3.0625 3.5 C-2.51722656 2.8503125 -1.97195313 2.200625 -1.41015625 1.53125 C-0.71212891 0.77328125 -0.71212891 0.77328125 0 0 Z " fill="currentColor" transform="translate(983,681)"/>
<path d="M0 0 C0.33 0 0.66 0 1 0 C1 2.31 1 4.62 1 7 C-1.31 7 -3.62 7 -6 7 C-5.02433888 5.83040013 -4.044375 4.66438823 -3.0625 3.5 C-2.51722656 2.8503125 -1.97195313 2.200625 -1.41015625 1.53125 C-0.71212891 0.77328125 -0.71212891 0.77328125 0 0 Z " fill="currentColor" transform="translate(991,673)"/>
<path d="M0 0 C2.01635978 3.02453967 3.03246502 5.63075348 4.1875 9.0625 C4.55230469 10.12597656 4.91710937 11.18945312 5.29296875 12.28515625 C6 15 6 15 5 17 C4.34 16.67 3.68 16.34 3 16 C2.1484375 13.41796875 2.1484375 13.41796875 1.375 10.1875 C0.98441406 8.60001953 0.98441406 8.60001953 0.5859375 6.98046875 C0 4 0 4 0 0 Z " fill="currentColor" transform="translate(101,416)"/>
<path d="M0 0 C1.32 0 2.64 0 4 0 C4 0.66 4 1.32 4 2 C4.69867187 1.97679687 5.39734375 1.95359375 6.1171875 1.9296875 C7.02726563 1.91164063 7.93734375 1.89359375 8.875 1.875 C10.23238281 1.84019531 10.23238281 1.84019531 11.6171875 1.8046875 C14 2 14 2 16 4 C10.72 3.67 5.44 3.34 0 3 C0 2.01 0 1.02 0 0 Z " fill="currentColor" transform="translate(592,1381)"/>
<path d="M0 0 C0.33 0.99 0.66 1.98 1 3 C1.99 3.33 2.98 3.66 4 4 C3.401875 4.515625 2.80375 5.03125 2.1875 5.5625 C-0.5073536 8.56533687 -1.55720619 11.24873609 -3 15 C-4.43410153 11.21180727 -3.51009497 8.93478721 -2.0625 5.25 C-1.49208984 3.77273438 -1.49208984 3.77273438 -0.91015625 2.265625 C-0.60980469 1.51796875 -0.30945312 0.7703125 0 0 Z " fill="currentColor" transform="translate(1180,1276)"/>
<path d="M0 0 C0.33 0 0.66 0 1 0 C1.3913152 4.45936282 0.21759262 6.97791276 -2 10.8125 C-2.556875 11.78832031 -3.11375 12.76414062 -3.6875 13.76953125 C-4.120625 14.50558594 -4.55375 15.24164063 -5 16 C-5.33 15.34 -5.66 14.68 -6 14 C-5.0390625 11.25 -5.0390625 11.25 -3.625 8 C-3.16351562 6.9275 -2.70203125 5.855 -2.2265625 4.75 C-1.51426317 3.15299768 -0.78202132 1.56404264 0 0 Z " fill="currentColor" transform="translate(1391,496)"/>
<path d="M0 0 C6.04433574 1.35997554 9.63494136 4.85651794 14 9 C10.20246301 9 8.93581015 7.81129297 5.875 5.625 C4.98554688 4.99851563 4.09609375 4.37203125 3.1796875 3.7265625 C1 2 1 2 0 0 Z " fill="currentColor" transform="translate(468,127)"/>
<path d="M0 0 C0.33 0.66 0.66 1.32 1 2 C0.328125 3.91015625 0.328125 3.91015625 -0.75 6.0625 C-1.09546875 6.77535156 -1.4409375 7.48820312 -1.796875 8.22265625 C-3 10 -3 10 -6 11 C-5.39305845 7.84669446 -4.3583335 5.81111133 -2.4375 3.25 C-1.98246094 2.63640625 -1.52742187 2.0228125 -1.05859375 1.390625 C-0.70925781 0.93171875 -0.35992188 0.4728125 0 0 Z " fill="currentColor" transform="translate(695,85)"/>
<path d="M0 0 C1.46491151 2.79607022 2.62245922 5.57006766 3.625 8.5625 C4.01558594 9.70912109 4.01558594 9.70912109 4.4140625 10.87890625 C5 13 5 13 5 16 C4.34 16 3.68 16 3 16 C2.49193553 14.27318563 1.99389533 12.54342021 1.5 10.8125 C1.08234375 9.36810547 1.08234375 9.36810547 0.65625 7.89453125 C0.03322392 5.14654124 -0.12302812 2.80401584 0 0 Z " fill="currentColor" transform="translate(365,1400)"/>
<path d="M0 0 C0 1.32 0 2.64 0 4 C-3.3 4 -6.6 4 -10 4 C-7.02096266 1.02096266 -4.19714671 0 0 0 Z " fill="currentColor" transform="translate(920,1388)"/>
<path d="M0 0 C0.66 0.66 1.32 1.32 2 2 C0.68 6.29 -0.64 10.58 -2 15 C-2.33 15 -2.66 15 -3 15 C-2.5547115 9.72684667 -1.91626837 4.98229776 0 0 Z " fill="currentColor" transform="translate(155,1003)"/>
<path d="M0 0 C-1.30986273 1.16962686 -2.6229626 2.33562944 -3.9375 3.5 C-4.66839844 4.1496875 -5.39929688 4.799375 -6.15234375 5.46875 C-8 7 -8 7 -9 7 C-9 5.02 -9 3.04 -9 1 C-2.25 -1.125 -2.25 -1.125 0 0 Z " fill="currentColor" transform="translate(721,807)"/>
<path d="M0 0 C-1.30986273 1.16962686 -2.6229626 2.33562944 -3.9375 3.5 C-4.66839844 4.1496875 -5.39929688 4.799375 -6.15234375 5.46875 C-8 7 -8 7 -9 7 C-9 5.02 -9 3.04 -9 1 C-2.25 -1.125 -2.25 -1.125 0 0 Z " fill="currentColor" transform="translate(817,711)"/>
<path d="M0 0 C-1.30986273 1.16962686 -2.6229626 2.33562944 -3.9375 3.5 C-4.66839844 4.1496875 -5.39929688 4.799375 -6.15234375 5.46875 C-8 7 -8 7 -9 7 C-9 5.02 -9 3.04 -9 1 C-2.25 -1.125 -2.25 -1.125 0 0 Z " fill="currentColor" transform="translate(849,679)"/>
<path d="M0 0 C0.66 0 1.32 0 2 0 C2 0.66 2 1.32 2 2 C2.61875 2.309375 3.2375 2.61875 3.875 2.9375 C5.25 3.625 6.625 4.3125 8 5 C8 5.66 8 6.32 8 7 C5.07120629 6.37240135 2.63904371 5.41377341 0 4 C0 2.68 0 1.36 0 0 Z " fill="currentColor" transform="translate(1472,704)"/>
<path d="M0 0 C3.28465896 2.79196011 5.01321958 6.23196817 7 10 C7 10.66 7 11.32 7 12 C6.34 12 5.68 12 5 12 C2.95830515 9.09451118 2 7.59857954 2 4 C1.34 4 0.68 4 0 4 C0 2.68 0 1.36 0 0 Z " fill="currentColor" transform="translate(134,477)"/>
<path d="M0 0 C0.66 0.33 1.32 0.66 2 1 C0.87926138 1.83905565 -0.24674547 2.67107831 -1.375 3.5 C-2.31472656 4.19609375 -2.31472656 4.19609375 -3.2734375 4.90625 C-5 6 -5 6 -7 6 C-7.33 6.99 -7.66 7.98 -8 9 C-9.32 8.67 -10.64 8.34 -12 8 C-10.37615858 6.85252535 -8.75088944 5.7070709 -7.125 4.5625 C-6.22007813 3.92441406 -5.31515625 3.28632813 -4.3828125 2.62890625 C-2 1 -2 1 0 0 Z " fill="currentColor" transform="translate(1068,126)"/>
<path d="M0 0 C1.70884005 1.62339805 3.37446717 3.29319053 5 5 C5 5.66 5 6.32 5 7 C3.35 7 1.7 7 0 7 C0 4.69 0 2.38 0 0 Z " fill="currentColor" transform="translate(688,1441)"/>
<path d="M0 0 C1.65 0 3.3 0 5 0 C4.1875 2.4375 4.1875 2.4375 3 5 C2.01 5.33 1.02 5.66 0 6 C0 4.02 0 2.04 0 0 Z " fill="currentColor" transform="translate(848,1432)"/>
<path d="M0 0 C0.33 0 0.66 0 1 0 C1.125 7.75 1.125 7.75 0 10 C-0.66 10 -1.32 10 -2 10 C-2.33 10.99 -2.66 11.98 -3 13 C-2.45144652 8.428721 -1.58255197 4.32564205 0 0 Z " fill="currentColor" transform="translate(1170,1402)"/>
<path d="M0 0 C0.33 0 0.66 0 1 0 C1 3.63 1 7.26 1 11 C-0.32 10.67 -1.64 10.34 -3 10 C-2.01 6.7 -1.02 3.4 0 0 Z " fill="currentColor" transform="translate(1535,773)"/>
<path d="M0 0 C4.23429756 1.31061591 8.07407404 2.94356259 12 5 C9.44345185 5.95582656 8.39658231 6.17802782 5.859375 5.0390625 C5.16328125 4.57242188 4.4671875 4.10578125 3.75 3.625 C3.04359375 3.16351562 2.3371875 2.70203125 1.609375 2.2265625 C1.07828125 1.82179688 0.5471875 1.41703125 0 1 C0 0.67 0 0.34 0 0 Z " fill="currentColor" transform="translate(1487,714)"/>
<path d="M0 0 C0.66 0 1.32 0 2 0 C0.34832443 3.5786304 -1.78286492 6.74820188 -4 10 C-4.99 9.67 -5.98 9.34 -7 9 C-5.88266271 7.49428343 -4.75589965 5.99555708 -3.625 4.5 C-2.99851562 3.6646875 -2.37203125 2.829375 -1.7265625 1.96875 C-1.15679687 1.3190625 -0.58703125 0.669375 0 0 Z " fill="currentColor" transform="translate(122,662)"/>
<path d="M0 0 C1.21236328 0.02707031 1.21236328 0.02707031 2.44921875 0.0546875 C3.37154297 0.08949219 3.37154297 0.08949219 4.3125 0.125 C2.8125 1.6875 2.8125 1.6875 0.3125 3.125 C-2.46187543 3.09323234 -4.94036467 2.62864148 -7.6875 2.125 C-4.48369983 -0.01086678 -3.66810033 -0.10632175 0 0 Z " fill="currentColor" transform="translate(139.6875,362.875)"/>
<path d="M0 0 C-1.07429598 0.84495189 -2.15989202 1.67554858 -3.25 2.5 C-4.15492188 3.19609375 -4.15492188 3.19609375 -5.078125 3.90625 C-7 5 -7 5 -11 5 C-11 4.34 -11 3.68 -11 3 C-9.73581754 2.30034557 -8.46334598 1.61565237 -7.1875 0.9375 C-6.47980469 0.55464844 -5.77210938 0.17179688 -5.04296875 -0.22265625 C-3 -1 -3 -1 0 0 Z " fill="currentColor" transform="translate(640,139)"/>
<path d="M0 0 C-0.98652984 3.31832766 -1.68731503 4.76548627 -4.5 6.875 C-5.325 7.24625 -6.15 7.6175 -7 8 C-7.66 7.67 -8.32 7.34 -9 7 C-8.01 6.67 -7.02 6.34 -6 6 C-6 5.34 -6 4.68 -6 4 C-2.47058824 0 -2.47058824 0 0 0 Z " fill="currentColor" transform="translate(672,114)"/>
<path d="M0 0 C0.99 0 1.98 0 3 0 C1.49946106 3.11650396 -0.06181958 6.13149298 -2 9 C-2.99 9.33 -3.98 9.66 -5 10 C-5 9.34 -5 8.68 -5 8 C-4.01 7.34 -3.02 6.68 -2 6 C-0.78715124 2.94570927 -0.78715124 2.94570927 0 0 Z " fill="currentColor" transform="translate(1405,882)"/>
<path d="M0 0 C1.98 0 3.96 0 6 0 C4.35830472 2.02054804 2.69088222 4.02043058 1 6 C0.67 6 0.34 6 0 6 C0 4.02 0 2.04 0 0 Z " fill="currentColor" transform="translate(696,824)"/>
<path d="M0 0 C1.98 0 3.96 0 6 0 C4.35830472 2.02054804 2.69088222 4.02043058 1 6 C0.67 6 0.34 6 0 6 C0 4.02 0 2.04 0 0 Z " fill="currentColor" transform="translate(728,792)"/>
<path d="M0 0 C1.98 0 3.96 0 6 0 C4.35830472 2.02054804 2.69088222 4.02043058 1 6 C0.67 6 0.34 6 0 6 C0 4.02 0 2.04 0 0 Z " fill="currentColor" transform="translate(760,760)"/>
<path d="M0 0 C0 1.32 0 2.64 0 4 C-2.64 4 -5.28 4 -8 4 C-8 3.34 -8 2.68 -8 2 C-5.09399739 0.74335022 -3.20395416 0 0 0 Z " fill="currentColor" transform="translate(80,700)"/>
<path d="M0 0 C1.98 0 3.96 0 6 0 C4.35830472 2.02054804 2.69088222 4.02043058 1 6 C0.67 6 0.34 6 0 6 C0 4.02 0 2.04 0 0 Z " fill="currentColor" transform="translate(824,696)"/>
<path d="M0 0 C2.35953094 2.35953094 2.49141413 3.77895617 3 7 C2.01 6.67 1.02 6.34 0 6 C-0.33 6.66 -0.66 7.32 -1 8 C-1.66 8 -2.32 8 -3 8 C-1.125 2.25 -1.125 2.25 0 0 Z " fill="currentColor" transform="translate(1022,634)"/>
<path d="M0 0 C1.98 0 3.96 0 6 0 C4.35830472 2.02054804 2.69088222 4.02043058 1 6 C0.67 6 0.34 6 0 6 C0 4.02 0 2.04 0 0 Z " fill="currentColor" transform="translate(904,616)"/>
<path d="M0 0 C0.33 0 0.66 0 1 0 C1.29341888 5.67276511 1.00559652 8.99067246 -2 14 C-2.85712696 11.60004452 -3.22584094 10.48394488 -2.125 8.125 C-1.75375 7.42375 -1.3825 6.7225 -1 6 C-0.61709538 4.00889599 -0.27395385 2.00899487 0 0 Z " fill="currentColor" transform="translate(361,234)"/>
<path d="M0 0 C-3.66291938 2.47785723 -6.6109185 3.48964169 -11 4 C-8.14317358 -0.28523962 -4.97227354 -1.84158279 0 0 Z " fill="currentColor" transform="translate(1270,1185)"/>
<path d="M0 0 C0.66 0 1.32 0 2 0 C2 0.99 2 1.98 2 3 C-1.465 4.485 -1.465 4.485 -5 6 C-5.33 4.68 -5.66 3.36 -6 2 C-4.35 2 -2.7 2 -1 2 C-0.67 1.34 -0.34 0.68 0 0 Z " fill="currentColor" transform="translate(1478,824)"/>
<path d="M0 0 C1.65 0 3.3 0 5 0 C3.63016497 3.16115776 3.0109362 3.9927092 0 6 C0 4.02 0 2.04 0 0 Z " fill="currentColor" transform="translate(856,664)"/>
<path d="M0 0 C1.65 0 3.3 0 5 0 C3.63016497 3.16115776 3.0109362 3.9927092 0 6 C0 4.02 0 2.04 0 0 Z " fill="currentColor" transform="translate(888,632)"/>
<path d="M0 0 C2.61500768 2.36595933 4.38999603 4.86049226 6 8 C5.67 8.66 5.34 9.32 5 10 C2.9754262 8.06745228 1.57894208 6.36841312 0 4 C0 2.68 0 1.36 0 0 Z " fill="currentColor" transform="translate(119,455)"/>
<path d="M0 0 C3.28788824 3.11016455 5.83735988 6.01618925 8 10 C3.79236776 8.4972742 2.1972242 5.76667005 0 2 C0 1.34 0 0.68 0 0 Z " fill="currentColor" transform="translate(1199,294)"/>
<path d="M0 0 C0.66 0.33 1.32 0.66 2 1 C0.3125 3.5 0.3125 3.5 -2 6 C-4.75 6.3125 -4.75 6.3125 -7 6 C-4.74259377 3.66475218 -2.7194239 1.81294927 0 0 Z " fill="currentColor" transform="translate(1506,810)"/>
<path d="M0 0 C1.98 0 3.96 0 6 0 C4.35 1.65 2.7 3.3 1 5 C0.67 3.35 0.34 1.7 0 0 Z " fill="currentColor" transform="translate(920,736)"/>
<path d="M0 0 C0 3.39593478 -0.52165948 4.06619881 -2.5 6.6875 C-2.9640625 7.31011719 -3.428125 7.93273437 -3.90625 8.57421875 C-4.2671875 9.04472656 -4.628125 9.51523437 -5 10 C-5.33 9.01 -5.66 8.02 -6 7 C-4.78515625 5.17578125 -4.78515625 5.17578125 -3.0625 3.3125 C-2.49660156 2.68988281 -1.93070313 2.06726563 -1.34765625 1.42578125 C-0.90292969 0.95527344 -0.45820313 0.48476563 0 0 Z " fill="currentColor" transform="translate(134,646)"/>
<path d="M0 0 C1.65 0 3.3 0 5 0 C4.01 0.495 4.01 0.495 3 1 C2.26924352 3.3140622 1.59861742 5.64828869 1 8 C0.67 8 0.34 8 0 8 C0 5.36 0 2.72 0 0 Z " fill="currentColor" transform="translate(1392,488)"/>
<path d="M0 0 C0.33 1.32 0.66 2.64 1 4 C-0.65 5.32 -2.3 6.64 -4 8 C-3.67 6.35 -3.34 4.7 -3 3 C-2.01 2.67 -1.02 2.34 0 2 C0 1.34 0 0.68 0 0 Z " fill="currentColor" transform="translate(1412,462)"/>
<path d="M0 0 C-0.99 0.33 -1.98 0.66 -3 1 C-3.99 2.485 -3.99 2.485 -5 4 C-5.99 3.67 -6.98 3.34 -8 3 C-8 2.01 -8 1.02 -8 0 C-4.94736336 -0.98120464 -3.05263664 -0.98120464 0 0 Z " fill="currentColor" transform="translate(1440,849)"/>
<path d="M0 0 C3.08089673 2.77280706 4.68775452 5.06326356 6 9 C2.56225537 7.85408512 1.82586841 7.04311402 0 4 C0 2.68 0 1.36 0 0 Z " fill="currentColor" transform="translate(6,786)"/>
<path d="M0 0 C0.66 0.66 1.32 1.32 2 2 C1.01 3.98 0.02 5.96 -1 8 C-1.66 8 -2.32 8 -3 8 C-1.125 1.125 -1.125 1.125 0 0 Z " fill="currentColor" transform="translate(113,1087)"/>
<path d="M0 0 C0.99 0.33 1.98 0.66 3 1 C0.6875 3.5 0.6875 3.5 -2 6 C-2.99 6 -3.98 6 -5 6 C-5 5.34 -5 4.68 -5 4 C-4.01 3.67 -3.02 3.34 -2 3 C-1.34 2.01 -0.68 1.02 0 0 Z " fill="currentColor" transform="translate(1437,849)"/>
<path d="M0 0 C1.65 0 3.3 0 5 0 C5 0.99 5 1.98 5 3 C3.02 3 1.04 3 -1 3 C-0.67 2.01 -0.34 1.02 0 0 Z " fill="currentColor" transform="translate(1451,837)"/>
<path d="M0 0 C0.33 1.32 0.66 2.64 1 4 C-0.98 4 -2.96 4 -5 4 C-4.67 3.01 -4.34 2.02 -4 1 C-1.9375 0.3125 -1.9375 0.3125 0 0 Z " fill="currentColor" transform="translate(1487,820)"/>
<path d="M0 0 C1.98 0 3.96 0 6 0 C6.33 1.65 6.66 3.3 7 5 C3.535 3.02 3.535 3.02 0 1 C0 0.67 0 0.34 0 0 Z " fill="currentColor" transform="translate(1498,720)"/>
<path d="M0 0 C2.86697492 1.28519565 4.97607712 2.57129254 7 5 C7 5.66 7 6.32 7 7 C5.68 6.34 4.36 5.68 3 5 C3 4.34 3 3.68 3 3 C2.34 3 1.68 3 1 3 C0.67 2.01 0.34 1.02 0 0 Z " fill="currentColor" transform="translate(1215,314)"/>
<path d="M0 0 C0.66 0 1.32 0 2 0 C0.52307692 5.66153846 0.52307692 5.66153846 -2.125 7.375 C-3.053125 7.684375 -3.053125 7.684375 -4 8 C-3.34 6.35 -2.68 4.7 -2 3 C-1.34 3 -0.68 3 0 3 C0 2.01 0 1.02 0 0 Z " fill="currentColor" transform="translate(336,293)"/>
</svg>
