<svg width="53" height="60" viewBox="0 0 53 60" fill="none" xmlns="http://www.w3.org/2000/svg">
<path d="M46.375 11.6696C46.3398 11.3532 46.0578 11.2127 45.8464 11.2127C45.635 11.2127 41.0186 10.8612 41.0186 10.8612C41.0186 10.8612 37.8118 7.66256 37.4242 7.34622C37.0718 6.99473 36.4023 7.10017 36.1203 7.17047C36.0851 7.17047 35.4156 7.38137 34.3231 7.73287C33.2307 4.60457 31.363 1.75747 28.0153 1.75747H27.6981C26.7819 0.56239 25.5838 0 24.5971 0C16.8444 0 13.109 9.66608 11.9461 14.587C8.91556 15.536 6.76596 16.1687 6.51928 16.2742C4.82779 16.8014 4.79255 16.8366 4.58112 18.4183C4.40492 19.6134 0 53.6028 0 53.6028L34.2879 60L52.8943 55.993C52.9295 55.9227 46.4102 11.9859 46.375 11.6696ZM32.4202 8.22495C31.5745 8.471 30.5525 8.78735 29.5306 9.13884V8.50615C29.5306 6.60808 29.2839 5.06151 28.8258 3.83128C30.5878 4.04218 31.6802 5.97539 32.4202 8.22495ZM26.6762 4.21793C27.1343 5.41301 27.4515 7.10017 27.4515 9.42003V9.77153C25.5485 10.3691 23.5399 10.9666 21.4608 11.6344C22.6237 7.20562 24.8437 5.02636 26.6762 4.21793ZM24.4209 2.03866C24.7733 2.03866 25.1257 2.17926 25.4076 2.39015C22.9056 3.55008 20.2626 6.46748 19.1702 12.3726C17.514 12.8998 15.9282 13.3568 14.4129 13.8489C15.6815 9.34974 18.8531 2.03866 24.4209 2.03866Z" fill="#95BF47" style="fill:#95BF47;fill:color(display-p3 0.5843 0.7490 0.2784);fill-opacity:1;"/>
<path d="M45.8464 11.1424C45.635 11.1424 41.0186 10.7909 41.0186 10.7909C41.0186 10.7909 37.8118 7.59226 37.4242 7.27592C37.2832 7.13532 37.107 7.06502 36.9661 7.06502L34.3936 60L53 55.993C53 55.993 46.4807 11.9859 46.4455 11.6696C46.3045 11.3532 46.0578 11.2126 45.8464 11.1424Z" fill="#5E8E3E" style="fill:#5E8E3E;fill:color(display-p3 0.3686 0.5569 0.2431);fill-opacity:1;"/>
<path d="M28.0153 21.406L25.76 28.1898C25.76 28.1898 23.7161 27.1002 21.2846 27.1002C17.6549 27.1002 17.4787 29.3849 17.4787 29.9473C17.4787 33.0404 25.5838 34.2355 25.5838 41.5114C25.5838 47.2408 21.9541 50.9315 17.0558 50.9315C11.1356 50.9315 8.17553 47.2759 8.17553 47.2759L9.7613 42.0738C9.7613 42.0738 12.8624 44.7452 15.4701 44.7452C17.1968 44.7452 17.9016 43.4095 17.9016 42.4253C17.9016 38.3831 11.2766 38.2074 11.2766 31.529C11.2766 25.9402 15.2939 20.5272 23.4342 20.5272C26.4648 20.4921 28.0153 21.406 28.0153 21.406Z" fill="white" style="fill:white;fill-opacity:1;"/>
</svg>
