<svg width="60" height="60" viewBox="0 0 60 60" fill="none" xmlns="http://www.w3.org/2000/svg">
<path d="M58.7454 15.5591C58.0541 12.976 56.0239 10.946 53.4408 10.2545C48.7636 9 29.9999 9 29.9999 9C29.9999 9 11.2364 9 6.55909 10.2545C3.97597 10.946 1.946 12.976 1.25453 15.5591C3.57628e-07 20.2364 0 30.001 0 30.001C0 30.001 3.57628e-07 39.7656 1.25453 44.4429C1.946 47.026 3.97597 49.056 6.55909 49.7474C11.2364 51.002 29.9999 51.002 29.9999 51.002C29.9999 51.002 48.7636 51.002 53.4408 49.7474C56.0239 49.056 58.0541 47.026 58.7454 44.4429C60 39.7656 60 30.001 60 30.001C60 30.001 59.995 20.2364 58.7454 15.5591Z" fill="#FF0000" style="fill:#FF0000;fill:color(display-p3 1.0000 0.0000 0.0000);fill-opacity:1;"/>
<path d="M23.9961 38.9999L39.5839 30.001L23.9961 21.002V38.9999Z" fill="white" style="fill:white;fill-opacity:1;"/>
</svg>
